<svg xmlns="http://www.w3.org/2000/svg" xmlns:xlink="http://www.w3.org/1999/xlink" width="180" zoomAndPan="magnify" viewBox="0 0 135 119.999999" height="160" preserveAspectRatio="xMidYMid meet" version="1.0"><defs><clipPath id="83a9ee0d50"><path d="M 2 38 L 131 38 L 131 87 L 2 87 Z M 2 38 " clip-rule="nonzero"/></clipPath><clipPath id="48b4ed5e5c"><path d="M -2.882812 55.015625 L 121.972656 22.578125 L 134.796875 71.9375 L 9.941406 104.378906 Z M -2.882812 55.015625 " clip-rule="nonzero"/></clipPath><clipPath id="28de82650f"><path d="M -2.882812 55.015625 L 121.972656 22.578125 L 134.796875 71.9375 L 9.941406 104.378906 Z M -2.882812 55.015625 " clip-rule="nonzero"/></clipPath><clipPath id="6b1624eb36"><path d="M -2.882812 55.015625 L 121.972656 22.578125 L 134.796875 71.9375 L 9.941406 104.378906 Z M -2.882812 55.015625 " clip-rule="nonzero"/></clipPath><clipPath id="06c8f07950"><path d="M 5 55 L 105 55 L 105 85 L 5 85 Z M 5 55 " clip-rule="nonzero"/></clipPath><clipPath id="b33c7dc777"><path d="M -2.882812 55.015625 L 121.972656 22.578125 L 134.796875 71.9375 L 9.941406 104.378906 Z M -2.882812 55.015625 " clip-rule="nonzero"/></clipPath><clipPath id="43e324e091"><path d="M -2.882812 55.015625 L 121.972656 22.578125 L 134.796875 71.9375 L 9.941406 104.378906 Z M -2.882812 55.015625 " clip-rule="nonzero"/></clipPath><clipPath id="52376faaf3"><path d="M -2.882812 55.015625 L 121.972656 22.578125 L 134.796875 71.9375 L 9.941406 104.378906 Z M -2.882812 55.015625 " clip-rule="nonzero"/></clipPath><clipPath id="1f0f80cd82"><path d="M 42 40 L 129 40 L 129 73 L 42 73 Z M 42 40 " clip-rule="nonzero"/></clipPath><clipPath id="0c24ea48c0"><path d="M -2.882812 55.015625 L 121.972656 22.578125 L 134.796875 71.9375 L 9.941406 104.378906 Z M -2.882812 55.015625 " clip-rule="nonzero"/></clipPath><clipPath id="200ec68df1"><path d="M -2.882812 55.015625 L 121.972656 22.578125 L 134.796875 71.9375 L 9.941406 104.378906 Z M -2.882812 55.015625 " clip-rule="nonzero"/></clipPath><clipPath id="1087358dbf"><path d="M -2.882812 55.015625 L 121.972656 22.578125 L 134.796875 71.9375 L 9.941406 104.378906 Z M -2.882812 55.015625 " clip-rule="nonzero"/></clipPath><clipPath id="308d8ac3c1"><path d="M 1 38 L 132 38 L 132 88 L 1 88 Z M 1 38 " clip-rule="nonzero"/></clipPath><clipPath id="ac296ced62"><path d="M -2.882812 55.015625 L 121.972656 22.578125 L 134.796875 71.9375 L 9.941406 104.378906 Z M -2.882812 55.015625 " clip-rule="nonzero"/></clipPath><clipPath id="91b5b29106"><path d="M -2.882812 55.015625 L 121.972656 22.578125 L 134.796875 71.9375 L 9.941406 104.378906 Z M -2.882812 55.015625 " clip-rule="nonzero"/></clipPath><clipPath id="29c25c26fc"><path d="M -2.882812 55.015625 L 121.972656 22.578125 L 134.796875 71.9375 L 9.941406 104.378906 Z M -2.882812 55.015625 " clip-rule="nonzero"/></clipPath><clipPath id="387acaa0c6"><path d="M -2.855469 55.113281 L 122 22.675781 L 134.796875 71.933594 L 9.941406 104.375 Z M -2.855469 55.113281 " clip-rule="nonzero"/></clipPath></defs><g clip-path="url(#83a9ee0d50)"><g clip-path="url(#48b4ed5e5c)"><g clip-path="url(#28de82650f)"><g clip-path="url(#6b1624eb36)"><path fill="#1a3643" d="M 129.152344 55.292969 C 127.933594 53.625 125.914062 52.195312 123.230469 50.949219 C 117.546875 48.316406 108.824219 46.511719 98.191406 45.71875 C 98.1875 45.71875 98.183594 45.71875 98.175781 45.71875 C 93.828125 45.394531 89.164062 45.238281 84.261719 45.261719 C 78.832031 40.683594 71.644531 38.203125 64.023438 38.925781 C 56.398438 39.648438 49.804688 43.433594 45.339844 48.949219 C 40.511719 49.84375 35.960938 50.875 31.75 52.011719 C 24.921875 53.851562 19 55.972656 14.304688 58.253906 C 10.488281 60.113281 7.476562 62.070312 5.4375 64.105469 C 4.421875 65.125 3.640625 66.164062 3.140625 67.226562 C 2.636719 68.292969 2.414062 69.390625 2.515625 70.480469 C 2.546875 70.796875 2.605469 71.105469 2.6875 71.40625 C 2.683594 71.511719 2.683594 71.628906 2.691406 71.769531 C 2.707031 72.328125 2.773438 73.164062 2.796875 73.414062 C 2.921875 74.765625 3.546875 76.023438 4.558594 77.15625 C 6.332031 79.136719 9.289062 80.78125 13.203125 82.144531 C 24.941406 86.222656 45.417969 87.699219 68.453125 85.523438 C 85.996094 83.859375 101.695312 80.382812 112.925781 76.082031 C 118.542969 73.929688 123.046875 71.578125 126.125 69.109375 C 127.664062 67.875 128.847656 66.609375 129.628906 65.308594 C 130.410156 64.007812 130.785156 62.65625 130.65625 61.304688 C 130.636719 61.136719 130.589844 60.710938 130.535156 60.28125 C 130.507812 60.066406 130.476562 59.851562 130.449219 59.667969 C 130.425781 59.527344 130.40625 59.414062 130.382812 59.308594 C 130.40625 58.996094 130.40625 58.683594 130.375 58.371094 C 130.269531 57.277344 129.84375 56.242188 129.152344 55.292969 Z M 129.296875 58.472656 C 129.398438 59.554688 129.109375 60.660156 128.421875 61.816406 C 127.214844 63.832031 124.757812 65.941406 121.253906 67.957031 C 117.882812 69.910156 113.550781 71.78125 108.472656 73.492188 L 84.640625 60.097656 C 85.53125 59.710938 86.320312 59.328125 87.027344 58.953125 C 88.839844 57.988281 89.84375 57.0625 90.402344 56.269531 C 90.742188 55.792969 90.90625 55.359375 90.988281 55.027344 L 126.253906 53.953125 C 127.101562 54.589844 127.78125 55.25 128.273438 55.933594 C 128.875 56.753906 129.210938 57.597656 129.296875 58.472656 Z M 119.867188 71.804688 L 119.867188 71.808594 C 119.214844 72.152344 118.535156 72.488281 117.828125 72.824219 L 117.660156 71.042969 L 117.65625 71.035156 C 118.363281 70.707031 119.042969 70.375 119.699219 70.039062 Z M 61.910156 84.960938 L 61.734375 83.109375 C 62.289062 83.070312 62.847656 83.03125 63.40625 82.988281 L 63.582031 84.84375 C 63.023438 84.886719 62.464844 84.925781 61.910156 84.960938 Z M 56.4375 85.257812 L 56.261719 83.40625 C 57.378906 83.359375 58.503906 83.304688 59.640625 83.238281 L 59.816406 85.089844 C 58.683594 85.15625 57.554688 85.210938 56.4375 85.257812 Z M 47.625 85.441406 L 47.625 85.4375 L 47.449219 83.59375 C 49.632812 83.59375 51.863281 83.558594 54.136719 83.484375 L 54.3125 85.335938 C 52.039062 85.410156 49.804688 85.441406 47.625 85.441406 Z M 65.90625 64.140625 L 67.5625 81.554688 C 52.859375 82.917969 39.21875 82.765625 28.335938 81.414062 L 49.121094 63.863281 C 52.851562 64.53125 58.058594 64.855469 65.90625 64.140625 Z M 83.355469 60.621094 L 107.078125 73.953125 C 96.660156 77.320312 83.3125 80.03125 68.644531 81.453125 L 66.988281 64.039062 C 74.796875 63.265625 79.828125 61.972656 83.355469 60.621094 Z M 69.03125 82.507812 C 79.101562 81.515625 88.539062 79.925781 96.855469 77.929688 L 97.03125 79.769531 L 97.03125 79.773438 C 88.734375 81.773438 79.285156 83.367188 69.207031 84.359375 Z M 124.671875 52.914062 L 91.015625 53.941406 C 90.957031 53.6875 90.875 53.503906 90.835938 53.421875 L 90.828125 53.402344 C 90.03125 51.902344 89.105469 50.484375 88.058594 49.171875 L 98.1875 46.804688 C 105.15625 47.332031 111.28125 48.292969 116.214844 49.625 C 119.660156 50.550781 122.519531 51.664062 124.671875 52.914062 Z M 94.429688 46.570312 L 87.28125 48.238281 C 86.707031 47.578125 86.101562 46.945312 85.46875 46.34375 C 88.566406 46.347656 91.558594 46.421875 94.429688 46.570312 Z M 64.125 40.003906 C 75.042969 38.96875 85.03125 44.773438 89.863281 53.90625 C 89.890625 53.964844 89.964844 54.140625 89.980469 54.324219 C 89.984375 54.371094 89.984375 54.414062 89.980469 54.457031 C 89.980469 54.460938 89.980469 54.464844 89.980469 54.46875 C 89.96875 54.644531 89.941406 55.027344 89.515625 55.644531 C 89.082031 56.257812 88.226562 57.085938 86.515625 57.992188 C 85.582031 58.488281 84.503906 59.003906 83.203125 59.515625 C 83.203125 59.515625 83.203125 59.515625 83.199219 59.515625 C 79.691406 60.894531 74.578125 62.230469 66.34375 63.011719 C 66.339844 63.011719 66.328125 63.011719 66.3125 63.011719 C 66.292969 63.015625 66.28125 63.015625 66.277344 63.015625 C 58.046875 63.792969 52.769531 63.441406 49.066406 62.75 C 49.0625 62.75 49.0625 62.75 49.0625 62.75 C 47.691406 62.492188 46.53125 62.1875 45.519531 61.875 C 43.671875 61.304688 42.671875 60.652344 42.132812 60.132812 C 41.597656 59.605469 41.5 59.234375 41.453125 59.0625 C 41.441406 59.015625 41.433594 58.96875 41.429688 58.921875 C 41.410156 58.742188 41.445312 58.550781 41.460938 58.492188 C 44.492188 48.613281 53.207031 41.039062 64.125 40.003906 Z M 42.933594 52.441406 L 35.597656 52.140625 C 38.390625 51.457031 41.316406 50.820312 44.355469 50.238281 C 43.847656 50.949219 43.371094 51.683594 42.933594 52.441406 Z M 31.949219 53.082031 L 42.34375 53.5 C 41.566406 54.988281 40.921875 56.554688 40.421875 58.179688 L 40.417969 58.195312 C 40.394531 58.285156 40.347656 58.480469 40.339844 58.742188 L 7.089844 64.050781 C 7.59375 63.609375 8.15625 63.171875 8.765625 62.730469 C 13.65625 59.207031 21.765625 55.835938 31.949219 53.082031 Z M 3.597656 70.378906 C 3.515625 69.503906 3.6875 68.613281 4.121094 67.691406 C 4.476562 66.933594 5.019531 66.152344 5.734375 65.367188 L 40.570312 59.804688 C 40.710938 60.113281 40.957031 60.507812 41.382812 60.914062 C 42.078125 61.585938 43.238281 62.308594 45.203125 62.914062 C 45.964844 63.148438 46.8125 63.378906 47.761719 63.589844 L 26.875 81.222656 C 25.503906 81.035156 24.179688 80.828125 22.902344 80.597656 C 17.050781 79.554688 12.273438 78.101562 8.945312 76.335938 C 7.28125 75.457031 5.980469 74.5 5.085938 73.496094 C 4.191406 72.492188 3.699219 71.460938 3.597656 70.378906 Z M 5.367188 76.433594 C 4.617188 75.59375 4.152344 74.734375 3.957031 73.839844 C 3.996094 73.890625 4.035156 73.941406 4.078125 73.988281 C 4.097656 74.011719 4.117188 74.03125 4.132812 74.054688 C 4.171875 74.097656 4.210938 74.140625 4.25 74.1875 C 4.257812 74.199219 4.269531 74.210938 4.277344 74.222656 C 4.285156 74.226562 4.292969 74.234375 4.296875 74.242188 C 4.519531 74.488281 4.757812 74.730469 5.015625 74.964844 C 5.035156 74.980469 5.054688 74.996094 5.070312 75.011719 C 5.136719 75.070312 5.199219 75.128906 5.265625 75.183594 C 5.285156 75.199219 5.304688 75.214844 5.320312 75.234375 C 6.460938 76.203125 7.90625 77.085938 9.632812 77.890625 L 9.632812 77.898438 L 9.792969 79.5625 C 9.597656 79.46875 9.40625 79.371094 9.222656 79.273438 C 7.558594 78.390625 6.257812 77.433594 5.367188 76.433594 Z M 11.933594 80.515625 L 11.933594 80.507812 L 11.769531 78.789062 C 12.144531 78.933594 12.53125 79.074219 12.925781 79.210938 C 13.597656 79.445312 14.304688 79.671875 15.035156 79.886719 L 15.035156 79.890625 L 15.203125 81.65625 C 14.03125 81.296875 12.941406 80.917969 11.933594 80.515625 Z M 16.621094 82.070312 L 16.621094 82.0625 L 16.453125 80.289062 C 23.765625 82.253906 33.539062 83.40625 44.746094 83.570312 L 44.921875 85.417969 C 36.753906 85.292969 29.367188 84.636719 23.183594 83.53125 C 20.8125 83.109375 18.617188 82.621094 16.621094 82.070312 Z M 124.808594 68.757812 L 124.648438 67.085938 L 124.648438 67.078125 C 125.058594 66.785156 125.449219 66.492188 125.820312 66.195312 L 125.976562 67.816406 L 125.976562 67.824219 C 125.613281 68.132812 125.222656 68.445312 124.808594 68.757812 Z M 128.699219 64.75 C 128.386719 65.273438 127.988281 65.800781 127.511719 66.332031 L 127.371094 64.839844 L 127.371094 64.828125 C 128.148438 64.058594 128.789062 63.28125 129.28125 62.484375 L 129.355469 63.28125 L 129.367188 63.28125 C 129.21875 63.765625 128.996094 64.25 128.699219 64.75 " fill-opacity="1" fill-rule="nonzero"/></g></g></g></g><g clip-path="url(#06c8f07950)"><g clip-path="url(#b33c7dc777)"><g clip-path="url(#43e324e091)"><g clip-path="url(#52376faaf3)"><path fill="#50adb6" d="M 95.789062 80.066406 L 95.785156 80.070312 C 88.019531 81.875 79.644531 83.261719 70.894531 84.1875 L 70.886719 84.1875 L 70.886719 84.183594 L 70.710938 82.339844 L 70.710938 82.335938 L 70.71875 82.332031 C 79.472656 81.40625 87.847656 80.023438 95.605469 78.226562 L 95.613281 78.222656 L 95.613281 78.230469 L 95.789062 80.0625 Z M 99.125 75.136719 C 90.171875 77.464844 80.246094 79.191406 69.621094 80.273438 L 69.613281 80.273438 L 69.613281 80.265625 L 68.164062 65.007812 L 68.164062 65 L 68.167969 65 C 72.347656 64.546875 75.917969 63.925781 79.082031 63.105469 C 80.566406 62.71875 81.972656 62.28125 83.265625 61.808594 L 104.355469 73.660156 L 104.371094 73.667969 L 104.355469 73.671875 C 102.671875 74.179688 100.910156 74.671875 99.125 75.136719 Z M 66.386719 80.578125 L 66.382812 80.578125 C 53.652344 81.699219 41.402344 81.714844 30.957031 80.628906 L 30.941406 80.625 L 30.953125 80.617188 L 49.433594 65.015625 C 53.6875 65.714844 58.757812 65.8125 64.929688 65.308594 L 64.9375 65.308594 L 64.9375 65.3125 L 66.386719 80.574219 Z M 26.550781 80.089844 L 26.546875 80.089844 C 25.363281 79.921875 24.203125 79.734375 23.09375 79.535156 C 17.363281 78.511719 12.644531 77.078125 9.449219 75.382812 C 8.671875 74.972656 7.976562 74.542969 7.382812 74.105469 L 7.390625 74.097656 C 7.753906 74.332031 8.152344 74.5625 8.566406 74.777344 C 9.621094 75.320312 10.71875 75.730469 11.753906 76.09375 C 10.949219 75.707031 9.808594 75.132812 8.765625 74.433594 C 7.691406 73.714844 6.859375 72.964844 6.226562 72.140625 C 5.511719 71.1875 5.207031 70.144531 5.375 69.199219 C 5.484375 68.460938 5.898438 67.660156 6.511719 67.003906 L 6.519531 67.011719 C 6.308594 67.542969 6.1875 68.101562 6.15625 68.667969 C 6.101562 69.847656 6.609375 71.082031 7.546875 72.058594 C 8.320312 72.839844 9.253906 73.507812 10.394531 74.09375 C 10.882812 74.34375 11.410156 74.578125 12.007812 74.816406 C 12.449219 74.992188 12.921875 75.167969 13.523438 75.375 C 12.753906 75.003906 11.65625 74.449219 10.652344 73.773438 C 9.621094 73.078125 8.820312 72.355469 8.207031 71.566406 C 7.519531 70.65625 7.222656 69.652344 7.367188 68.746094 C 7.378906 68.664062 7.394531 68.582031 7.414062 68.496094 C 7.5625 67.816406 7.964844 67.101562 8.515625 66.53125 L 8.527344 66.539062 C 8.292969 67.085938 8.164062 67.660156 8.140625 68.25 C 8.097656 69.367188 8.585938 70.539062 9.480469 71.460938 C 10.226562 72.207031 11.121094 72.84375 12.222656 73.410156 C 12.699219 73.652344 13.21875 73.882812 13.804688 74.113281 C 14.238281 74.285156 14.714844 74.457031 15.296875 74.65625 C 14.554688 74.296875 13.503906 73.761719 12.539062 73.113281 C 11.550781 72.441406 10.78125 71.75 10.191406 70.988281 C 9.527344 70.121094 9.234375 69.164062 9.359375 68.296875 C 9.367188 68.21875 9.382812 68.140625 9.398438 68.054688 C 9.542969 67.355469 9.964844 66.609375 10.523438 66.058594 L 10.535156 66.066406 C 10.28125 66.628906 10.144531 67.222656 10.121094 67.828125 C 10.09375 68.890625 10.566406 69.996094 11.414062 70.867188 C 12.128906 71.574219 12.992188 72.183594 14.050781 72.726562 C 14.519531 72.964844 15.027344 73.1875 15.601562 73.410156 C 16.03125 73.578125 16.496094 73.746094 17.0625 73.9375 C 15.980469 73.40625 15.140625 72.933594 14.425781 72.449219 C 13.476562 71.804688 12.742188 71.140625 12.171875 70.414062 C 11.535156 69.585938 11.246094 68.671875 11.351562 67.84375 C 11.359375 67.773438 11.371094 67.699219 11.386719 67.617188 C 11.523438 66.882812 11.953125 66.125 12.53125 65.585938 L 12.542969 65.59375 C 12.265625 66.171875 12.121094 66.785156 12.105469 67.410156 C 12.089844 68.410156 12.542969 69.449219 13.347656 70.269531 C 14.03125 70.941406 14.859375 71.519531 15.878906 72.042969 C 16.339844 72.273438 16.839844 72.492188 17.394531 72.707031 C 17.820312 72.871094 18.277344 73.035156 18.835938 73.21875 C 17.800781 72.707031 16.996094 72.25 16.3125 71.785156 C 15.40625 71.171875 14.699219 70.535156 14.15625 69.839844 C 13.546875 69.050781 13.257812 68.183594 13.34375 67.394531 C 13.351562 67.328125 13.359375 67.257812 13.375 67.175781 C 13.511719 66.355469 14.164062 65.613281 14.4375 65.332031 L 14.445312 65.339844 C 14.214844 65.863281 14.09375 66.421875 14.085938 66.992188 C 14.085938 67.929688 14.519531 68.90625 15.28125 69.675781 C 15.945312 70.316406 16.714844 70.851562 17.707031 71.355469 C 18.15625 71.582031 18.644531 71.792969 19.191406 72.003906 C 19.609375 72.164062 20.0625 72.320312 20.605469 72.5 C 19.621094 72.007812 18.855469 71.570312 18.199219 71.125 C 17.335938 70.535156 16.660156 69.925781 16.136719 69.265625 C 15.554688 68.519531 15.269531 67.691406 15.335938 66.941406 C 15.34375 66.878906 15.351562 66.816406 15.359375 66.734375 C 15.46875 65.996094 15.96875 65.121094 16.496094 64.742188 L 16.507812 64.75 C 16.21875 65.328125 16.070312 65.941406 16.070312 66.570312 C 16.082031 67.449219 16.496094 68.363281 17.214844 69.078125 C 17.847656 69.683594 18.585938 70.191406 19.535156 70.671875 C 19.976562 70.890625 20.449219 71.097656 20.988281 71.300781 C 21.402344 71.457031 21.84375 71.609375 22.375 71.78125 C 21.441406 71.308594 20.710938 70.890625 20.085938 70.460938 C 19.265625 69.898438 18.621094 69.320312 18.117188 68.691406 C 17.5625 67.984375 17.28125 67.199219 17.332031 66.488281 C 17.332031 66.433594 17.339844 66.375 17.347656 66.292969 C 17.445312 65.492188 17.839844 64.808594 18.410156 64.464844 L 18.425781 64.457031 L 18.417969 64.476562 C 18.167969 65.007812 18.042969 65.574219 18.054688 66.152344 C 18.074219 66.96875 18.472656 67.820312 19.148438 68.484375 C 19.75 69.050781 20.453125 69.527344 21.359375 69.988281 C 21.800781 70.203125 22.265625 70.402344 22.785156 70.597656 C 23.195312 70.75 23.628906 70.898438 24.144531 71.058594 C 23.257812 70.609375 22.566406 70.207031 21.976562 69.800781 C 21.195312 69.261719 20.582031 68.710938 20.101562 68.117188 C 19.570312 67.449219 19.296875 66.710938 19.324219 66.039062 C 19.324219 65.972656 19.332031 65.90625 19.335938 65.855469 C 19.375 65.421875 19.554688 64.628906 20.328125 64.144531 L 20.320312 64.144531 L 20.320312 64.132812 L 20.347656 64.128906 L 20.363281 64.125 L 20.355469 64.132812 L 20.355469 64.136719 L 20.347656 64.152344 C 20.121094 64.65625 20.015625 65.1875 20.035156 65.734375 C 20.070312 66.488281 20.453125 67.273438 21.078125 67.890625 C 21.652344 68.417969 22.320312 68.867188 23.1875 69.304688 C 23.617188 69.511719 24.074219 69.707031 24.582031 69.894531 C 24.980469 70.039062 25.417969 70.1875 25.914062 70.339844 C 25.078125 69.910156 24.425781 69.527344 23.863281 69.136719 C 23.125 68.628906 22.542969 68.105469 22.082031 67.542969 C 21.578125 66.914062 21.308594 66.222656 21.316406 65.585938 C 21.316406 65.527344 21.320312 65.46875 21.320312 65.414062 C 21.363281 64.738281 21.71875 64.144531 22.269531 63.820312 L 22.285156 63.8125 L 22.28125 63.828125 C 22.078125 64.308594 21.992188 64.808594 22.019531 65.3125 C 22.066406 66.007812 22.429688 66.730469 23.011719 67.292969 C 23.554688 67.78125 24.191406 68.203125 25.015625 68.621094 C 25.4375 68.820312 25.882812 69.007812 26.378906 69.191406 C 26.769531 69.332031 27.195312 69.472656 27.679688 69.621094 C 26.894531 69.210938 26.28125 68.847656 25.75 68.476562 C 25.054688 67.992188 24.503906 67.496094 24.066406 66.96875 C 23.589844 66.382812 23.320312 65.730469 23.308594 65.136719 C 23.308594 65.082031 23.308594 65.03125 23.308594 64.980469 L 23.308594 64.972656 C 23.324219 64.335938 23.613281 63.859375 24.191406 63.515625 L 24.207031 63.503906 L 24.203125 63.519531 C 24.03125 63.964844 23.964844 64.429688 24 64.894531 C 24.0625 65.527344 24.40625 66.1875 24.945312 66.699219 C 25.460938 67.15625 26.046875 67.535156 26.84375 67.9375 C 27.257812 68.132812 27.691406 68.3125 28.175781 68.488281 C 28.558594 68.625 28.976562 68.761719 29.449219 68.898438 C 28.714844 68.511719 28.136719 68.164062 27.636719 67.8125 C 26.984375 67.355469 26.464844 66.890625 26.046875 66.390625 C 25.597656 65.847656 25.332031 65.242188 25.300781 64.683594 C 25.300781 64.640625 25.296875 64.597656 25.296875 64.550781 L 25.296875 64.53125 C 25.285156 63.9375 25.539062 63.527344 26.113281 63.207031 L 26.125 63.199219 L 26.121094 63.214844 C 25.984375 63.625 25.9375 64.050781 25.984375 64.476562 C 26.058594 65.046875 26.386719 65.640625 26.878906 66.101562 C 27.363281 66.519531 27.914062 66.875 28.671875 67.253906 C 29.074219 67.441406 29.5 67.617188 29.96875 67.78125 C 30.351562 67.917969 30.757812 68.046875 31.21875 68.179688 C 30.535156 67.8125 29.992188 67.484375 29.523438 67.152344 C 28.914062 66.71875 28.425781 66.28125 28.027344 65.816406 C 27.636719 65.347656 27.148438 63.765625 28.015625 62.945312 L 28.035156 62.929688 L 28.027344 62.953125 C 27.933594 63.316406 27.910156 63.6875 27.964844 64.054688 C 28.054688 64.574219 28.355469 65.089844 28.8125 65.507812 C 29.386719 65.988281 30.015625 66.328125 30.5 66.570312 C 30.894531 66.753906 31.3125 66.921875 31.765625 67.078125 C 32.140625 67.210938 32.539062 67.335938 32.988281 67.460938 C 32.355469 67.113281 31.851562 66.804688 31.410156 66.488281 C 30.84375 66.082031 30.382812 65.675781 30.011719 65.242188 C 29.625 64.789062 29.117188 63.65625 29.941406 62.597656 L 29.953125 62.601562 C 29.882812 62.945312 29.878906 63.292969 29.949219 63.636719 C 30.050781 64.09375 30.335938 64.546875 30.746094 64.910156 C 31.273438 65.339844 31.84375 65.644531 32.328125 65.882812 C 32.714844 66.0625 33.121094 66.222656 33.5625 66.375 C 33.929688 66.503906 34.320312 66.621094 34.753906 66.742188 C 34.175781 66.414062 33.710938 66.125 33.296875 65.828125 C 32.773438 65.449219 32.347656 65.070312 31.992188 64.667969 C 31.875 64.53125 30.871094 63.316406 31.851562 62.289062 L 31.867188 62.277344 L 31.863281 62.296875 C 31.828125 62.609375 31.851562 62.910156 31.929688 63.214844 C 32.046875 63.613281 32.3125 64.003906 32.679688 64.316406 C 33.160156 64.691406 33.671875 64.960938 34.15625 65.199219 C 34.535156 65.371094 34.925781 65.527344 35.359375 65.671875 C 35.71875 65.792969 36.101562 65.910156 36.523438 66.019531 C 35.992188 65.714844 35.566406 65.441406 35.183594 65.164062 C 34.703125 64.8125 34.304688 64.460938 33.972656 64.09375 C 33.566406 63.636719 32.996094 62.753906 33.757812 61.984375 L 33.765625 61.976562 L 33.769531 61.992188 C 33.773438 62.273438 33.820312 62.535156 33.914062 62.796875 C 34.042969 63.132812 34.292969 63.460938 34.613281 63.71875 C 35.0625 64.058594 35.539062 64.300781 35.984375 64.515625 C 36.351562 64.683594 36.738281 64.828125 37.152344 64.96875 C 37.511719 65.085938 37.882812 65.195312 38.292969 65.300781 C 37.820312 65.023438 37.417969 64.757812 37.070312 64.5 C 36.722656 64.246094 36.378906 63.941406 35.957031 63.519531 C 35.589844 63.152344 35.234375 62.542969 35.628906 61.734375 C 35.640625 61.710938 35.648438 61.695312 35.648438 61.6875 L 35.664062 61.6875 C 35.714844 61.933594 35.789062 62.160156 35.894531 62.375 C 36.042969 62.652344 36.265625 62.910156 36.546875 63.125 C 36.941406 63.402344 37.351562 63.609375 37.8125 63.832031 C 38.171875 63.992188 38.546875 64.132812 38.949219 64.265625 C 39.296875 64.378906 39.660156 64.480469 40.058594 64.582031 C 39.640625 64.324219 39.277344 64.082031 38.957031 63.839844 C 38.5625 63.542969 38.230469 63.25 37.9375 62.945312 C 37.640625 62.632812 37.332031 61.914062 37.53125 61.386719 L 37.535156 61.371094 L 37.542969 61.382812 C 37.644531 61.597656 37.753906 61.785156 37.878906 61.957031 C 38.039062 62.171875 38.242188 62.363281 38.480469 62.53125 C 38.832031 62.761719 39.1875 62.933594 39.566406 63.113281 L 39.640625 63.148438 C 39.988281 63.300781 40.359375 63.4375 40.746094 63.5625 C 41.089844 63.671875 41.441406 63.769531 41.828125 63.859375 C 41.460938 63.628906 41.140625 63.40625 40.84375 63.175781 C 40.492188 62.90625 40.191406 62.644531 39.921875 62.371094 C 39.6875 62.136719 39.367188 61.582031 39.386719 61.089844 L 39.386719 61.074219 L 39.402344 61.085938 C 39.714844 61.4375 40.035156 61.707031 40.410156 61.933594 C 40.691406 62.101562 40.96875 62.230469 41.261719 62.367188 C 41.328125 62.398438 41.398438 62.429688 41.46875 62.464844 C 41.574219 62.511719 41.691406 62.558594 41.84375 62.617188 C 42.671875 63.128906 43.695312 63.574219 44.886719 63.945312 C 45.054688 63.996094 45.238281 64.050781 45.453125 64.113281 L 45.464844 64.117188 L 45.457031 64.125 L 26.554688 80.085938 Z M 39.414062 57.796875 L 39.410156 57.796875 L 11.46875 62.261719 L 11.464844 62.246094 C 14.550781 60.382812 18.542969 58.578125 23.332031 56.878906 L 23.335938 56.890625 C 22.515625 57.234375 21.695312 57.582031 20.902344 57.929688 C 19.773438 58.425781 18.582031 58.964844 17.261719 59.578125 C 19.570312 58.679688 21.632812 57.921875 23.554688 57.269531 L 23.558594 57.28125 C 23.199219 57.441406 22.871094 57.589844 22.554688 57.734375 C 21.515625 58.207031 20.421875 58.722656 19.210938 59.300781 C 20.238281 58.894531 21.183594 58.527344 22.09375 58.183594 C 23.160156 57.78125 24.15625 57.417969 25.132812 57.082031 L 25.207031 57.054688 L 25.210938 57.066406 C 24.824219 57.246094 24.503906 57.394531 24.207031 57.535156 C 23.269531 57.984375 22.269531 58.472656 21.164062 59.027344 C 22.105469 58.640625 22.972656 58.292969 23.808594 57.972656 C 24.769531 57.597656 25.707031 57.246094 26.597656 56.929688 C 26.640625 56.917969 26.683594 56.902344 26.726562 56.886719 C 26.765625 56.871094 26.808594 56.855469 26.851562 56.84375 L 26.855469 56.855469 L 26.816406 56.875 C 26.5 57.027344 26.175781 57.183594 25.859375 57.339844 C 25 57.769531 24.101562 58.230469 23.113281 58.75 C 23.972656 58.386719 24.761719 58.0625 25.527344 57.757812 C 26.421875 57.398438 27.25 57.078125 28.0625 56.78125 C 28.144531 56.75 28.230469 56.71875 28.3125 56.691406 L 28.476562 56.632812 L 28.480469 56.644531 C 28.152344 56.808594 27.835938 56.972656 27.511719 57.144531 C 26.75 57.546875 25.949219 57.984375 25.066406 58.476562 C 25.839844 58.136719 26.554688 57.832031 27.242188 57.546875 C 28.046875 57.210938 28.796875 56.910156 29.527344 56.628906 C 29.683594 56.570312 29.835938 56.511719 29.992188 56.457031 L 30.09375 56.417969 L 30.101562 56.429688 C 29.738281 56.625 29.441406 56.792969 29.164062 56.949219 C 28.496094 57.328125 27.792969 57.738281 27.019531 58.199219 C 27.714844 57.878906 28.347656 57.597656 28.957031 57.332031 C 29.671875 57.023438 30.335938 56.742188 30.996094 56.480469 L 31.296875 56.359375 C 31.433594 56.308594 31.570312 56.253906 31.707031 56.199219 L 31.714844 56.210938 C 31.414062 56.386719 31.113281 56.566406 30.816406 56.75 C 30.238281 57.105469 29.636719 57.492188 28.96875 57.921875 C 29.570312 57.632812 30.125 57.371094 30.671875 57.121094 C 31.296875 56.832031 31.882812 56.574219 32.460938 56.328125 L 32.597656 56.273438 C 32.785156 56.195312 32.976562 56.117188 33.167969 56.035156 L 33.320312 55.96875 L 33.324219 55.980469 L 33.277344 56.011719 L 33.238281 56.039062 C 32.941406 56.234375 32.695312 56.398438 32.464844 56.554688 C 31.898438 56.945312 31.347656 57.339844 30.917969 57.648438 C 31.441406 57.375 31.925781 57.132812 32.386719 56.910156 C 32.917969 56.648438 33.433594 56.402344 33.925781 56.179688 L 33.972656 56.15625 C 34.15625 56.078125 34.347656 55.992188 34.535156 55.90625 L 34.585938 55.882812 C 34.695312 55.832031 34.808594 55.78125 34.917969 55.730469 L 34.921875 55.742188 L 34.851562 55.796875 C 34.8125 55.824219 34.777344 55.851562 34.742188 55.878906 C 34.488281 56.070312 34.296875 56.21875 34.117188 56.359375 C 33.675781 56.707031 33.242188 57.0625 32.871094 57.371094 C 33.3125 57.125 33.710938 56.902344 34.101562 56.695312 C 34.554688 56.453125 34.976562 56.234375 35.390625 56.027344 L 35.414062 56.015625 C 35.574219 55.941406 35.738281 55.863281 35.902344 55.777344 L 35.992188 55.734375 C 36.152344 55.652344 36.320312 55.570312 36.484375 55.492188 L 36.488281 55.5 C 36.410156 55.574219 36.328125 55.644531 36.246094 55.722656 C 36.050781 55.898438 35.90625 56.035156 35.769531 56.164062 C 35.441406 56.472656 35.125 56.792969 34.824219 57.09375 C 35.183594 56.867188 35.507812 56.667969 35.816406 56.484375 C 36.175781 56.269531 36.523438 56.0625 36.855469 55.878906 C 36.992188 55.804688 37.128906 55.730469 37.273438 55.652344 L 37.351562 55.605469 C 37.566406 55.480469 37.785156 55.355469 37.992188 55.253906 L 38 55.261719 L 37.945312 55.328125 C 37.882812 55.402344 37.820312 55.480469 37.75 55.5625 C 37.652344 55.679688 37.535156 55.820312 37.421875 55.964844 C 37.210938 56.234375 37.011719 56.503906 36.78125 56.816406 C 37.046875 56.617188 37.292969 56.441406 37.53125 56.269531 C 37.800781 56.078125 38.066406 55.894531 38.324219 55.726562 C 38.425781 55.664062 38.53125 55.59375 38.640625 55.523438 L 38.703125 55.480469 C 38.953125 55.308594 39.214844 55.136719 39.429688 55.042969 L 39.449219 55.035156 L 39.4375 55.050781 L 39.414062 55.101562 C 39.363281 55.195312 39.316406 55.292969 39.253906 55.402344 C 39.183594 55.542969 39.128906 55.65625 39.074219 55.769531 C 38.949219 56.039062 38.832031 56.308594 38.734375 56.542969 C 38.914062 56.367188 39.082031 56.207031 39.246094 56.058594 C 39.433594 55.886719 39.613281 55.726562 39.789062 55.578125 C 39.855469 55.523438 39.929688 55.460938 40.007812 55.394531 C 40.132812 55.289062 40.273438 55.167969 40.398438 55.074219 L 40.417969 55.0625 L 40.40625 55.082031 C 40.03125 55.972656 39.695312 56.886719 39.414062 57.792969 L 39.414062 57.796875 " fill-opacity="1" fill-rule="nonzero"/></g></g></g></g><g clip-path="url(#1f0f80cd82)"><g clip-path="url(#0c24ea48c0)"><g clip-path="url(#200ec68df1)"><g clip-path="url(#1087358dbf)"><path fill="#267f85" d="M 127.402344 56.570312 C 127.027344 56.058594 126.523438 55.546875 125.898438 55.046875 L 91.757812 56.089844 C 91.632812 56.367188 91.472656 56.636719 91.289062 56.894531 C 90.527344 57.980469 89.261719 58.992188 87.535156 59.910156 C 87.359375 60.003906 87.183594 60.09375 87.007812 60.183594 L 108.582031 72.3125 C 113.425781 70.652344 117.503906 68.871094 120.714844 67.015625 C 124.042969 65.097656 126.386719 63.109375 127.492188 61.257812 C 128.058594 60.304688 128.296875 59.425781 128.21875 58.574219 C 128.152344 57.890625 127.882812 57.238281 127.402344 56.570312 Z M 120.039062 51.96875 C 118.792969 51.507812 117.421875 51.074219 115.933594 50.671875 C 111.0625 49.359375 105.121094 48.425781 98.273438 47.902344 L 89.921875 49.851562 C 90.59375 50.808594 91.207031 51.804688 91.753906 52.832031 Z M 88.898438 54.414062 C 88.898438 54.402344 88.890625 54.386719 88.886719 54.371094 C 86.578125 50.03125 83.074219 46.476562 78.753906 44.09375 C 74.316406 41.644531 69.292969 40.605469 64.226562 41.085938 C 62.121094 41.285156 64.605469 41.394531 71.722656 44.039062 C 81.035156 47.496094 83.023438 52.558594 78.472656 55.402344 C 74.289062 58.015625 50.59375 63 42.515625 58.761719 C 42.511719 58.777344 42.511719 58.796875 42.511719 58.808594 C 42.539062 58.90625 42.605469 59.070312 42.890625 59.351562 C 43.289062 59.738281 44.125 60.308594 45.839844 60.839844 C 49.332031 61.914062 54.800781 63.011719 66.175781 61.933594 L 66.210938 61.933594 L 66.242188 61.929688 C 77.617188 60.851562 82.78125 58.746094 86.011719 57.035156 C 87.597656 56.191406 88.308594 55.472656 88.625 55.027344 C 88.855469 54.691406 88.890625 54.519531 88.898438 54.414062 " fill-opacity="1" fill-rule="nonzero"/></g></g></g></g><g clip-path="url(#308d8ac3c1)"><g clip-path="url(#ac296ced62)"><g clip-path="url(#91b5b29106)"><g clip-path="url(#29c25c26fc)"><g clip-path="url(#387acaa0c6)"><path fill="#fee0c8" d="M 11.777344 78.800781 L 11.941406 80.507812 L 11.941406 80.511719 C 12.9375 80.910156 14.035156 81.289062 15.195312 81.648438 L 15.027344 79.894531 C 14.289062 79.675781 13.582031 79.445312 12.921875 79.21875 C 12.539062 79.085938 12.15625 78.945312 11.777344 78.800781 Z M 5.316406 75.238281 L 5.261719 75.191406 C 5.195312 75.132812 5.132812 75.074219 5.066406 75.019531 L 5.042969 74.996094 C 5.03125 74.984375 5.019531 74.976562 5.011719 74.96875 C 4.753906 74.734375 4.515625 74.492188 4.292969 74.246094 L 4.28125 74.238281 L 4.273438 74.226562 L 4.257812 74.207031 L 4.246094 74.191406 C 4.203125 74.148438 4.164062 74.101562 4.128906 74.058594 L 4.109375 74.035156 C 4.097656 74.019531 4.085938 74.007812 4.074219 73.992188 C 4.039062 73.949219 4.003906 73.910156 3.96875 73.867188 C 4.167969 74.753906 4.625 75.59375 5.371094 76.429688 C 6.265625 77.429688 7.5625 78.386719 9.226562 79.265625 C 9.398438 79.359375 9.582031 79.453125 9.785156 79.554688 L 9.628906 77.898438 C 7.882812 77.082031 6.433594 76.191406 5.316406 75.238281 Z M 8.945312 76.332031 C 12.238281 78.078125 17.066406 79.550781 22.90625 80.59375 C 24.171875 80.820312 25.507812 81.03125 26.878906 81.21875 L 47.746094 63.59375 C 46.882812 63.402344 46.046875 63.179688 45.199219 62.917969 C 43.496094 62.394531 42.207031 61.71875 41.378906 60.917969 C 41.023438 60.578125 40.75 60.207031 40.566406 59.808594 L 5.734375 65.375 C 5.023438 66.15625 4.480469 66.9375 4.125 67.695312 C 3.691406 68.621094 3.519531 69.496094 3.601562 70.378906 C 3.707031 71.46875 4.195312 72.488281 5.089844 73.492188 C 5.988281 74.496094 7.285156 75.453125 8.945312 76.332031 Z M 5.378906 69.199219 C 5.5 68.398438 5.957031 67.605469 6.515625 67.011719 C 6.308594 67.53125 6.179688 68.082031 6.152344 68.667969 C 6.089844 69.992188 6.722656 71.210938 7.542969 72.0625 C 8.394531 72.925781 9.367188 73.570312 10.390625 74.097656 C 10.917969 74.367188 11.457031 74.605469 12.003906 74.824219 C 12.542969 75.035156 13.085938 75.230469 13.625 75.417969 C 12.609375 74.929688 11.589844 74.394531 10.65625 73.769531 C 9.722656 73.140625 8.878906 72.421875 8.214844 71.558594 C 7.570312 70.707031 7.21875 69.699219 7.371094 68.75 C 7.382812 68.664062 7.398438 68.582031 7.417969 68.496094 C 7.582031 67.765625 8.011719 67.0625 8.519531 66.535156 C 8.292969 67.070312 8.160156 67.640625 8.132812 68.25 C 8.085938 69.503906 8.695312 70.660156 9.476562 71.46875 C 10.296875 72.289062 11.234375 72.910156 12.21875 73.414062 C 12.734375 73.675781 13.265625 73.910156 13.800781 74.121094 C 14.328125 74.328125 14.859375 74.515625 15.390625 74.695312 C 14.417969 74.226562 13.4375 73.710938 12.542969 73.105469 C 11.648438 72.503906 10.835938 71.808594 10.195312 70.984375 C 9.578125 70.171875 9.234375 69.203125 9.367188 68.296875 C 9.375 68.214844 9.390625 68.136719 9.40625 68.054688 C 9.5625 67.304688 10.007812 66.578125 10.527344 66.0625 C 10.28125 66.609375 10.136719 67.199219 10.117188 67.832031 C 10.082031 69.015625 10.664062 70.109375 11.410156 70.871094 C 12.203125 71.65625 13.097656 72.246094 14.046875 72.730469 C 14.554688 72.988281 15.074219 73.210938 15.597656 73.417969 C 16.113281 73.617188 16.636719 73.800781 17.15625 73.972656 C 16.222656 73.519531 15.289062 73.023438 14.429688 72.445312 C 13.570312 71.863281 12.792969 71.199219 12.179688 70.410156 C 11.582031 69.632812 11.246094 68.710938 11.359375 67.84375 C 11.367188 67.769531 11.378906 67.691406 11.394531 67.617188 C 11.539062 66.835938 12 66.085938 12.535156 65.589844 C 12.269531 66.152344 12.113281 66.757812 12.097656 67.410156 C 12.082031 68.527344 12.636719 69.554688 13.34375 70.277344 C 14.105469 71.023438 14.964844 71.582031 15.875 72.046875 C 16.371094 72.296875 16.878906 72.515625 17.394531 72.714844 C 17.898438 72.910156 18.410156 73.085938 18.917969 73.253906 C 18.03125 72.816406 17.136719 72.339844 16.316406 71.78125 C 15.496094 71.222656 14.75 70.589844 14.160156 69.835938 C 13.589844 69.097656 13.261719 68.21875 13.351562 67.394531 C 13.359375 67.320312 13.367188 67.246094 13.378906 67.175781 C 13.496094 66.488281 13.976562 65.8125 14.441406 65.335938 C 14.214844 65.847656 14.089844 66.402344 14.082031 66.992188 C 14.078125 68.039062 14.605469 69.003906 15.277344 69.679688 C 16.007812 70.386719 16.832031 70.917969 17.703125 71.363281 C 18.191406 71.605469 18.6875 71.816406 19.191406 72.007812 C 19.6875 72.199219 20.1875 72.371094 20.683594 72.53125 C 19.835938 72.109375 18.984375 71.652344 18.203125 71.117188 C 17.421875 70.585938 16.710938 69.976562 16.140625 69.261719 C 15.59375 68.558594 15.273438 67.726562 15.34375 66.941406 C 15.347656 66.871094 15.359375 66.804688 15.367188 66.734375 C 15.46875 66.023438 15.957031 65.136719 16.5 64.746094 C 16.222656 65.304688 16.0625 65.914062 16.0625 66.570312 C 16.074219 67.550781 16.578125 68.453125 17.207031 69.085938 C 17.910156 69.753906 18.699219 70.257812 19.53125 70.679688 C 20.007812 70.914062 20.496094 71.121094 20.984375 71.304688 C 21.472656 71.488281 21.960938 71.65625 22.449219 71.808594 C 21.644531 71.40625 20.835938 70.964844 20.089844 70.457031 C 19.347656 69.945312 18.667969 69.367188 18.125 68.6875 C 17.601562 68.023438 17.289062 67.234375 17.335938 66.488281 C 17.339844 66.425781 17.347656 66.359375 17.355469 66.292969 C 17.433594 65.628906 17.75 64.871094 18.410156 64.472656 C 18.167969 64.988281 18.035156 65.546875 18.046875 66.152344 C 18.070312 67.0625 18.546875 67.898438 19.144531 68.488281 C 19.816406 69.121094 20.566406 69.59375 21.359375 69.996094 C 21.824219 70.222656 22.300781 70.421875 22.78125 70.601562 C 23.257812 70.78125 23.738281 70.9375 24.214844 71.089844 C 23.449219 70.703125 22.683594 70.28125 21.980469 69.792969 C 21.273438 69.308594 20.625 68.757812 20.105469 68.113281 C 19.609375 67.488281 19.300781 66.742188 19.328125 66.039062 C 19.332031 65.976562 19.335938 65.914062 19.339844 65.855469 C 19.398438 65.210938 19.699219 64.539062 20.34375 64.144531 L 20.320312 64.136719 L 20.351562 64.132812 C 20.128906 64.625 20.011719 65.15625 20.027344 65.734375 C 20.070312 66.578125 20.519531 67.347656 21.074219 67.894531 C 21.71875 68.488281 22.433594 68.929688 23.1875 69.3125 C 23.644531 69.53125 24.109375 69.726562 24.578125 69.898438 C 25.042969 70.070312 25.511719 70.226562 25.980469 70.367188 C 25.257812 69.996094 24.53125 69.59375 23.863281 69.132812 C 23.195312 68.667969 22.585938 68.144531 22.085938 67.539062 C 21.617188 66.949219 21.3125 66.25 21.324219 65.585938 C 21.320312 65.527344 21.324219 65.472656 21.328125 65.414062 C 21.367188 64.804688 21.679688 64.171875 22.273438 63.824219 L 22.277344 63.824219 C 22.082031 64.285156 21.984375 64.78125 22.011719 65.3125 C 22.066406 66.089844 22.488281 66.796875 23.007812 67.296875 C 23.621094 67.851562 24.300781 68.265625 25.015625 68.625 C 25.460938 68.839844 25.917969 69.027344 26.375 69.195312 C 26.828125 69.359375 27.289062 69.507812 27.746094 69.644531 C 27.0625 69.292969 26.382812 68.910156 25.753906 68.46875 C 25.121094 68.03125 24.542969 67.535156 24.070312 66.960938 C 23.621094 66.414062 23.328125 65.757812 23.316406 65.136719 C 23.3125 65.082031 23.316406 65.027344 23.316406 64.972656 C 23.328125 64.394531 23.566406 63.894531 24.195312 63.519531 L 24.199219 63.519531 C 24.035156 63.945312 23.953125 64.402344 23.992188 64.894531 C 24.0625 65.601562 24.460938 66.242188 24.941406 66.703125 C 25.527344 67.21875 26.167969 67.605469 26.84375 67.941406 C 27.277344 68.148438 27.722656 68.332031 28.171875 68.492188 C 28.617188 68.652344 29.0625 68.792969 29.511719 68.925781 C 28.871094 68.585938 28.230469 68.222656 27.640625 67.808594 C 27.046875 67.390625 26.5 66.925781 26.050781 66.386719 C 25.628906 65.875 25.339844 65.261719 25.308594 64.683594 C 25.304688 64.632812 25.304688 64.582031 25.304688 64.53125 C 25.292969 63.988281 25.5 63.558594 26.113281 63.210938 L 26.117188 63.210938 C 25.984375 63.605469 25.929688 64.027344 25.976562 64.476562 C 26.0625 65.113281 26.429688 65.691406 26.875 66.105469 C 27.429688 66.585938 28.035156 66.941406 28.667969 67.257812 C 29.097656 67.457031 29.53125 67.632812 29.96875 67.789062 C 30.402344 67.941406 30.839844 68.078125 31.273438 68.203125 C 30.675781 67.882812 30.078125 67.535156 29.527344 67.144531 C 28.96875 66.753906 28.460938 66.316406 28.035156 65.8125 C 27.644531 65.347656 27.152344 63.769531 28.023438 62.949219 C 27.929688 63.300781 27.902344 63.667969 27.960938 64.058594 C 28.058594 64.625 28.398438 65.140625 28.808594 65.511719 C 29.332031 65.953125 29.898438 66.277344 30.496094 66.574219 C 30.914062 66.769531 31.335938 66.9375 31.765625 67.085938 C 32.1875 67.234375 32.613281 67.363281 33.039062 67.480469 C 32.480469 67.179688 31.929688 66.851562 31.414062 66.484375 C 30.894531 66.113281 30.417969 65.703125 30.015625 65.238281 C 29.644531 64.800781 29.113281 63.671875 29.945312 62.601562 C 29.878906 62.929688 29.871094 63.273438 29.941406 63.636719 C 30.054688 64.136719 30.371094 64.585938 30.742188 64.917969 C 31.238281 65.316406 31.765625 65.613281 32.324219 65.890625 C 32.730469 66.078125 33.144531 66.238281 33.558594 66.382812 C 33.972656 66.523438 34.390625 66.648438 34.804688 66.761719 C 34.289062 66.472656 33.777344 66.164062 33.300781 65.820312 C 32.820312 65.476562 32.375 65.09375 32 64.664062 C 31.648438 64.265625 30.992188 63.195312 31.855469 62.292969 C 31.824219 62.59375 31.839844 62.898438 31.925781 63.21875 C 32.050781 63.652344 32.34375 64.035156 32.675781 64.320312 C 33.140625 64.683594 33.632812 64.949219 34.152344 65.207031 C 34.550781 65.386719 34.953125 65.542969 35.355469 65.679688 C 35.757812 65.816406 36.164062 65.933594 36.570312 66.039062 C 36.09375 65.769531 35.625 65.480469 35.1875 65.160156 C 34.746094 64.835938 34.332031 64.484375 33.980469 64.089844 C 33.65625 63.726562 32.953125 62.808594 33.761719 61.992188 C 33.765625 62.257812 33.808594 62.523438 33.90625 62.800781 C 34.050781 63.164062 34.3125 63.484375 34.609375 63.726562 C 35.042969 64.050781 35.5 64.289062 35.980469 64.523438 C 36.367188 64.695312 36.757812 64.84375 37.152344 64.976562 C 37.546875 65.105469 37.9375 65.21875 38.332031 65.320312 C 37.902344 65.066406 37.476562 64.792969 37.074219 64.496094 C 36.671875 64.199219 36.304688 63.859375 35.960938 63.515625 C 35.046875 62.601562 35.667969 61.71875 35.65625 61.6875 C 35.703125 61.921875 35.777344 62.152344 35.890625 62.378906 C 36.046875 62.675781 36.28125 62.929688 36.542969 63.128906 C 36.945312 63.417969 37.367188 63.625 37.808594 63.839844 C 38.183594 64.003906 38.566406 64.148438 38.949219 64.269531 C 39.332031 64.394531 39.714844 64.503906 40.097656 64.597656 C 39.707031 64.359375 39.324219 64.105469 38.960938 63.835938 C 38.59375 63.558594 38.25 63.261719 37.941406 62.941406 C 37.667969 62.652344 37.332031 61.933594 37.539062 61.386719 C 37.632812 61.589844 37.742188 61.78125 37.871094 61.960938 C 38.042969 62.1875 38.253906 62.378906 38.476562 62.535156 C 38.847656 62.78125 39.234375 62.960938 39.636719 63.15625 C 40.003906 63.3125 40.375 63.449219 40.746094 63.566406 C 41.117188 63.6875 41.488281 63.789062 41.863281 63.875 C 41.515625 63.65625 41.171875 63.421875 40.847656 63.171875 C 40.519531 62.917969 40.210938 62.652344 39.925781 62.363281 C 39.6875 62.125 39.371094 61.582031 39.394531 61.089844 L 39.398438 61.089844 C 39.742188 61.476562 40.074219 61.738281 40.40625 61.9375 C 40.753906 62.148438 41.101562 62.296875 41.464844 62.46875 C 41.589844 62.523438 41.714844 62.574219 41.839844 62.621094 C 42.667969 63.136719 43.6875 63.578125 44.882812 63.949219 C 45.074219 64.007812 45.261719 64.066406 45.453125 64.121094 L 26.550781 80.082031 C 25.363281 79.914062 24.203125 79.726562 23.09375 79.53125 C 17.367188 78.507812 12.648438 77.070312 9.453125 75.378906 C 8.671875 74.964844 7.984375 74.539062 7.386719 74.101562 C 7.769531 74.351562 8.160156 74.574219 8.5625 74.78125 C 9.628906 75.332031 10.75 75.75 11.859375 76.136719 C 10.804688 75.636719 9.742188 75.082031 8.769531 74.429688 C 7.796875 73.78125 6.917969 73.03125 6.230469 72.136719 C 5.5625 71.246094 5.207031 70.191406 5.378906 69.199219 Z M 40.414062 58.195312 L 40.417969 58.175781 C 40.910156 56.570312 41.554688 55 42.335938 53.507812 L 31.949219 53.085938 C 21.695312 55.863281 13.679688 59.199219 8.769531 62.738281 C 8.171875 63.167969 7.613281 63.605469 7.109375 64.042969 L 40.335938 58.734375 C 40.34375 58.46875 40.394531 58.269531 40.414062 58.195312 Z M 11.46875 62.253906 C 14.546875 60.390625 18.585938 58.566406 23.332031 56.886719 C 22.519531 57.222656 21.707031 57.570312 20.902344 57.925781 C 19.617188 58.484375 18.34375 59.066406 17.078125 59.660156 C 19.214844 58.824219 21.378906 58.015625 23.558594 57.277344 C 23.222656 57.425781 22.886719 57.574219 22.550781 57.726562 C 21.375 58.261719 20.207031 58.816406 19.042969 59.375 C 20.054688 58.972656 21.074219 58.574219 22.097656 58.1875 C 23.105469 57.808594 24.117188 57.441406 25.136719 57.085938 C 25.160156 57.078125 25.183594 57.070312 25.210938 57.0625 C 24.875 57.214844 24.539062 57.375 24.203125 57.53125 C 23.132812 58.039062 22.070312 58.5625 21.011719 59.097656 C 21.941406 58.714844 22.875 58.339844 23.8125 57.976562 C 24.738281 57.617188 25.667969 57.269531 26.601562 56.9375 C 26.683594 56.90625 26.769531 56.878906 26.851562 56.847656 C 26.519531 57.007812 26.1875 57.171875 25.855469 57.335938 C 24.890625 57.816406 23.933594 58.3125 22.976562 58.816406 C 23.824219 58.457031 24.675781 58.105469 25.527344 57.765625 C 26.371094 57.425781 27.214844 57.101562 28.066406 56.785156 C 28.203125 56.738281 28.339844 56.6875 28.476562 56.636719 C 28.152344 56.804688 27.828125 56.96875 27.507812 57.140625 C 26.648438 57.59375 25.792969 58.058594 24.945312 58.535156 C 25.707031 58.199219 26.472656 57.871094 27.242188 57.550781 C 28 57.234375 28.765625 56.929688 29.53125 56.636719 C 29.71875 56.566406 29.90625 56.496094 30.097656 56.421875 C 29.785156 56.59375 29.472656 56.765625 29.160156 56.941406 C 28.402344 57.371094 27.65625 57.808594 26.914062 58.253906 C 27.589844 57.941406 28.273438 57.636719 28.957031 57.339844 C 29.632812 57.042969 30.3125 56.757812 30.996094 56.484375 C 31.234375 56.394531 31.472656 56.300781 31.710938 56.207031 C 31.410156 56.382812 31.109375 56.5625 30.8125 56.746094 C 30.160156 57.148438 29.519531 57.558594 28.878906 57.972656 C 29.472656 57.683594 30.070312 57.402344 30.671875 57.125 C 31.265625 56.855469 31.863281 56.589844 32.460938 56.335938 C 32.695312 56.238281 32.933594 56.140625 33.171875 56.039062 C 33.222656 56.019531 33.273438 55.996094 33.320312 55.976562 C 33.292969 55.996094 33.261719 56.015625 33.234375 56.03125 C 32.976562 56.203125 32.71875 56.375 32.464844 56.550781 C 31.917969 56.921875 31.378906 57.304688 30.847656 57.691406 C 31.359375 57.429688 31.871094 57.167969 32.386719 56.914062 C 32.898438 56.664062 33.410156 56.417969 33.929688 56.183594 C 34.128906 56.097656 34.332031 56.007812 34.539062 55.910156 C 34.664062 55.855469 34.792969 55.796875 34.921875 55.738281 C 34.859375 55.785156 34.800781 55.828125 34.738281 55.875 C 34.527344 56.03125 34.320312 56.191406 34.113281 56.355469 C 33.675781 56.699219 33.242188 57.054688 32.8125 57.410156 C 33.242188 57.171875 33.671875 56.933594 34.105469 56.703125 C 34.53125 56.472656 34.960938 56.25 35.394531 56.035156 C 35.5625 55.953125 35.734375 55.871094 35.90625 55.785156 C 36.097656 55.6875 36.292969 55.589844 36.484375 55.496094 C 36.40625 55.566406 36.324219 55.640625 36.242188 55.714844 C 36.082031 55.863281 35.921875 56.007812 35.765625 56.15625 C 35.429688 56.476562 35.105469 56.804688 34.78125 57.128906 C 35.125 56.914062 35.472656 56.699219 35.820312 56.488281 C 36.164062 56.28125 36.511719 56.078125 36.859375 55.882812 C 36.992188 55.8125 37.132812 55.738281 37.273438 55.65625 C 37.515625 55.519531 37.761719 55.375 37.996094 55.257812 C 37.917969 55.355469 37.835938 55.453125 37.746094 55.554688 C 37.632812 55.691406 37.523438 55.824219 37.417969 55.960938 C 37.1875 56.253906 36.96875 56.550781 36.75 56.847656 C 37.007812 56.65625 37.269531 56.464844 37.535156 56.277344 C 37.796875 56.089844 38.058594 55.910156 38.324219 55.734375 C 38.425781 55.671875 38.535156 55.601562 38.644531 55.527344 C 38.914062 55.347656 39.199219 55.148438 39.433594 55.046875 C 39.375 55.160156 39.320312 55.273438 39.25 55.398438 C 39.1875 55.519531 39.128906 55.644531 39.070312 55.765625 C 38.945312 56.03125 38.828125 56.300781 38.714844 56.566406 C 38.890625 56.398438 39.070312 56.230469 39.25 56.0625 C 39.429688 55.898438 39.609375 55.738281 39.792969 55.582031 C 39.859375 55.527344 39.933594 55.464844 40.011719 55.398438 C 40.140625 55.289062 40.277344 55.171875 40.402344 55.078125 C 40.023438 55.96875 39.691406 56.875 39.410156 57.789062 Z M 41.46875 58.492188 C 41.449219 58.574219 41.417969 58.753906 41.4375 58.921875 C 41.441406 58.972656 41.449219 59.019531 41.460938 59.0625 L 41.460938 59.070312 C 41.511719 59.246094 41.613281 59.609375 42.140625 60.128906 C 42.84375 60.808594 43.980469 61.394531 45.523438 61.871094 C 46.691406 62.230469 47.847656 62.515625 49.0625 62.742188 C 53.589844 63.589844 59.21875 63.675781 66.277344 63.011719 L 66.300781 63.007812 L 66.3125 63.007812 L 66.332031 63.003906 L 66.34375 63.003906 C 71.042969 62.558594 75.148438 61.882812 78.550781 61 C 80.246094 60.558594 81.765625 60.070312 83.199219 59.507812 C 84.351562 59.058594 85.433594 58.558594 86.515625 57.988281 C 87.9375 57.230469 88.945312 56.441406 89.507812 55.640625 C 89.925781 55.035156 89.960938 54.660156 89.976562 54.476562 L 89.976562 54.457031 C 89.976562 54.414062 89.976562 54.371094 89.972656 54.324219 C 89.957031 54.15625 89.894531 53.984375 89.859375 53.910156 C 84.855469 44.457031 74.757812 39.003906 64.125 40.011719 C 62.71875 40.144531 61.320312 40.390625 59.964844 40.742188 C 55.613281 41.875 51.597656 44.128906 48.351562 47.269531 C 45.148438 50.367188 42.769531 54.246094 41.46875 58.492188 Z M 72.101562 57.652344 C 75.101562 56.871094 77.425781 56.050781 78.46875 55.398438 C 80.140625 54.351562 80.945312 53.011719 80.789062 51.523438 C 80.660156 50.25 79.820312 48.914062 78.355469 47.664062 C 76.773438 46.308594 74.539062 45.089844 71.71875 44.042969 C 68.632812 42.898438 66.40625 42.222656 65.070312 41.820312 C 63.988281 41.496094 63.496094 41.34375 63.496094 41.238281 C 63.496094 41.207031 63.539062 41.183594 63.621094 41.164062 C 63.730469 41.132812 63.917969 41.109375 64.226562 41.078125 C 69.292969 40.601562 74.316406 41.640625 78.757812 44.085938 C 83.078125 46.472656 86.582031 50.027344 88.890625 54.371094 C 88.898438 54.382812 88.902344 54.398438 88.90625 54.414062 C 88.894531 54.539062 88.851562 54.710938 88.628906 55.027344 C 88.3125 55.480469 87.601562 56.195312 86.011719 57.039062 C 84.429688 57.878906 82.121094 58.96875 78.304688 59.960938 C 74.96875 60.828125 70.910156 61.492188 66.242188 61.933594 L 66.179688 61.941406 C 54.800781 63.015625 49.332031 61.921875 45.839844 60.84375 C 44.121094 60.316406 43.285156 59.742188 42.882812 59.355469 C 42.613281 59.089844 42.539062 58.925781 42.503906 58.8125 C 42.503906 58.792969 42.507812 58.777344 42.507812 58.761719 L 42.511719 58.753906 L 42.519531 58.757812 C 48.675781 61.988281 63.582031 59.867188 72.101562 57.652344 Z M 90.832031 53.402344 L 90.839844 53.417969 C 90.871094 53.480469 90.960938 53.671875 91.019531 53.933594 L 124.648438 52.910156 C 122.5 51.660156 119.660156 50.558594 116.210938 49.628906 C 111.238281 48.289062 105.171875 47.339844 98.1875 46.8125 L 88.070312 49.175781 C 89.117188 50.496094 90.046875 51.917969 90.832031 53.402344 Z M 89.921875 49.847656 L 98.269531 47.894531 C 105.121094 48.417969 111.066406 49.351562 115.933594 50.664062 C 117.414062 51.066406 118.796875 51.5 120.042969 51.964844 L 120.039062 51.976562 L 91.753906 52.839844 L 91.75 52.839844 L 91.746094 52.835938 C 91.203125 51.816406 90.589844 50.8125 89.917969 49.855469 L 89.910156 49.847656 Z M 44.339844 50.25 C 41.355469 50.820312 38.429688 51.457031 35.640625 52.136719 L 42.929688 52.433594 C 43.363281 51.683594 43.839844 50.949219 44.339844 50.25 Z M 94.382812 46.574219 C 91.519531 46.429688 88.527344 46.351562 85.484375 46.351562 C 86.109375 46.945312 86.714844 47.578125 87.285156 48.230469 Z M 117.832031 72.8125 C 118.53125 72.484375 119.214844 72.144531 119.863281 71.804688 L 119.691406 70.050781 C 119.046875 70.382812 118.363281 70.714844 117.660156 71.042969 Z M 124.65625 67.082031 L 124.65625 67.085938 L 124.8125 68.742188 C 125.222656 68.4375 125.613281 68.125 125.972656 67.816406 L 125.96875 67.816406 L 125.816406 66.207031 C 125.449219 66.5 125.058594 66.792969 124.65625 67.082031 Z M 129.277344 62.503906 C 128.792969 63.28125 128.152344 64.0625 127.375 64.832031 L 127.375 64.839844 L 127.515625 66.320312 C 127.992188 65.789062 128.386719 65.261719 128.695312 64.746094 C 128.988281 64.257812 129.210938 63.765625 129.359375 63.289062 L 129.351562 63.289062 L 129.351562 63.28125 Z M 78.824219 62.0625 C 78.824219 62.0625 78.820312 62.0625 78.820312 62.0625 C 75.488281 62.929688 71.507812 63.597656 66.996094 64.042969 L 68.648438 81.445312 C 79.554688 80.386719 90.21875 78.554688 99.488281 76.148438 C 102.132812 75.460938 104.683594 74.722656 107.0625 73.953125 L 83.351562 60.625 C 81.953125 61.164062 80.472656 61.636719 78.824219 62.0625 Z M 69.621094 80.265625 L 68.171875 65.007812 C 74.289062 64.34375 79.242188 63.296875 83.265625 61.8125 L 104.355469 73.667969 C 94.277344 76.703125 82.351562 78.972656 69.621094 80.265625 Z M 129.796875 54.820312 C 128.453125 52.992188 126.320312 51.503906 123.566406 50.222656 C 117.730469 47.527344 108.949219 45.726562 98.261719 44.921875 C 98.253906 44.921875 98.242188 44.921875 98.226562 44.921875 C 93.945312 44.601562 89.363281 44.445312 84.546875 44.460938 C 78.992188 39.871094 71.683594 37.398438 63.945312 38.128906 C 62.417969 38.273438 60.929688 38.539062 59.488281 38.914062 C 53.636719 40.433594 48.589844 43.761719 44.90625 48.21875 C 40.6875 49.007812 36.675781 49.898438 32.917969 50.875 C 32.457031 50.996094 31.996094 51.117188 31.542969 51.238281 L 31.539062 51.238281 C 24.675781 53.09375 18.710938 55.226562 13.953125 57.539062 C 10.089844 59.417969 7.011719 61.410156 4.875 63.539062 C 3.808594 64.605469 2.972656 65.714844 2.417969 66.886719 C 1.863281 68.058594 1.601562 69.304688 1.722656 70.558594 C 1.753906 70.878906 1.808594 71.195312 1.886719 71.503906 C 1.886719 71.597656 1.890625 71.691406 1.890625 71.792969 L 1.894531 71.796875 C 1.914062 72.386719 1.976562 73.214844 2 73.488281 C 2.035156 73.828125 2.09375 74.164062 2.179688 74.492188 C 2.480469 75.65625 3.105469 76.730469 3.960938 77.6875 C 5.890625 79.828125 8.960938 81.507812 12.941406 82.898438 C 18.917969 84.972656 27.027344 86.363281 36.542969 86.976562 C 46.054688 87.585938 56.972656 87.410156 68.527344 86.316406 C 80.15625 85.214844 90.976562 83.320312 100.246094 80.910156 C 105.007812 79.671875 109.363281 78.300781 113.210938 76.828125 C 118.878906 74.65625 123.441406 72.28125 126.625 69.734375 C 128.210938 68.457031 129.464844 67.132812 130.3125 65.71875 C 131.160156 64.308594 131.597656 62.777344 131.449219 61.226562 C 131.429688 61.042969 131.382812 60.621094 131.324219 60.179688 C 131.296875 59.960938 131.265625 59.742188 131.238281 59.546875 L 131.234375 59.542969 C 131.21875 59.441406 131.203125 59.347656 131.1875 59.253906 C 131.203125 58.9375 131.199219 58.617188 131.167969 58.292969 C 131.136719 57.953125 131.078125 57.621094 130.992188 57.292969 C 130.761719 56.410156 130.351562 55.582031 129.796875 54.820312 Z M 130.382812 58.367188 C 130.410156 58.675781 130.414062 58.992188 130.390625 59.3125 C 130.414062 59.410156 130.429688 59.519531 130.453125 59.660156 L 130.449219 59.667969 L 130.453125 59.667969 C 130.480469 59.832031 130.507812 60.035156 130.539062 60.28125 C 130.59375 60.6875 130.644531 61.121094 130.660156 61.304688 C 130.785156 62.617188 130.441406 63.96875 129.636719 65.3125 C 128.875 66.578125 127.695312 67.855469 126.128906 69.113281 C 123.089844 71.550781 118.648438 73.898438 112.929688 76.089844 C 109.097656 77.554688 104.765625 78.917969 100.046875 80.144531 C 90.570312 82.605469 79.644531 84.46875 68.453125 85.53125 C 57.320312 86.582031 46.304688 86.808594 36.59375 86.1875 C 27.144531 85.578125 19.058594 84.183594 13.203125 82.152344 C 9.171875 80.746094 6.261719 79.066406 4.550781 77.160156 C 3.507812 75.992188 2.914062 74.730469 2.789062 73.414062 C 2.769531 73.191406 2.703125 72.339844 2.683594 71.769531 C 2.679688 71.621094 2.675781 71.511719 2.679688 71.40625 C 2.597656 71.101562 2.539062 70.789062 2.511719 70.480469 C 2.40625 69.414062 2.617188 68.316406 3.132812 67.226562 C 3.621094 66.1875 4.398438 65.136719 5.433594 64.101562 C 7.429688 62.109375 10.414062 60.140625 14.300781 58.25 C 19.023438 55.957031 24.894531 53.855469 31.746094 52.003906 C 32.199219 51.882812 32.660156 51.761719 33.117188 51.640625 C 36.96875 50.640625 41.078125 49.734375 45.335938 48.941406 C 47.144531 46.707031 49.285156 44.777344 51.691406 43.210938 C 54.15625 41.605469 56.84375 40.417969 59.6875 39.679688 C 61.101562 39.3125 62.558594 39.058594 64.019531 38.917969 C 67.75 38.566406 71.429688 38.964844 74.964844 40.097656 C 78.382812 41.195312 81.511719 42.933594 84.265625 45.257812 C 89.117188 45.230469 93.800781 45.382812 98.175781 45.710938 L 98.191406 45.710938 C 108.921875 46.515625 117.578125 48.324219 123.234375 50.941406 C 125.992188 52.222656 127.984375 53.6875 129.15625 55.289062 C 129.867188 56.265625 130.28125 57.300781 130.382812 58.367188 Z M 95.789062 80.0625 C 96.199219 79.964844 96.613281 79.867188 97.023438 79.769531 L 96.851562 77.9375 C 96.4375 78.039062 96.027344 78.136719 95.613281 78.230469 Z M 126.25 53.957031 L 90.992188 55.035156 C 90.890625 55.457031 90.691406 55.875 90.40625 56.273438 C 89.742188 57.21875 88.605469 58.121094 87.027344 58.957031 C 86.246094 59.371094 85.46875 59.746094 84.65625 60.097656 L 108.476562 73.488281 C 113.582031 71.761719 117.882812 69.902344 121.253906 67.953125 C 124.742188 65.941406 127.21875 63.820312 128.414062 61.8125 C 129.105469 60.65625 129.390625 59.5625 129.289062 58.472656 C 129.207031 57.59375 128.871094 56.761719 128.269531 55.9375 C 127.777344 55.257812 127.09375 54.589844 126.25 53.957031 Z M 128.222656 58.574219 C 128.304688 59.429688 128.066406 60.308594 127.496094 61.261719 C 126.390625 63.109375 124.046875 65.105469 120.71875 67.023438 C 117.511719 68.875 113.429688 70.660156 108.582031 72.316406 L 108.578125 72.316406 L 87.007812 60.191406 L 86.996094 60.183594 L 87.007812 60.179688 C 87.175781 60.09375 87.355469 60 87.535156 59.902344 C 89.257812 58.988281 90.519531 57.976562 91.285156 56.890625 C 91.46875 56.632812 91.625 56.363281 91.753906 56.085938 L 91.757812 56.085938 L 125.898438 55.042969 C 126.527344 55.542969 127.03125 56.054688 127.40625 56.566406 C 127.890625 57.234375 128.15625 57.890625 128.222656 58.574219 Z M 56.445312 85.253906 C 57.550781 85.207031 58.683594 85.148438 59.808594 85.085938 L 59.636719 83.246094 C 58.53125 83.308594 57.398438 83.363281 56.269531 83.410156 Z M 69.210938 84.351562 C 69.773438 84.296875 70.332031 84.242188 70.886719 84.183594 L 70.710938 82.339844 C 70.15625 82.398438 69.597656 82.457031 69.035156 82.511719 Z M 16.628906 82.0625 C 18.613281 82.613281 20.820312 83.105469 23.183594 83.527344 C 29.480469 84.652344 36.789062 85.285156 44.914062 85.410156 L 44.742188 83.578125 C 33.621094 83.414062 23.839844 82.277344 16.460938 80.296875 Z M 47.632812 85.433594 C 49.816406 85.4375 52.0625 85.402344 54.304688 85.332031 L 54.128906 83.492188 C 51.878906 83.5625 49.632812 83.597656 47.457031 83.597656 Z M 49.121094 63.871094 L 28.347656 81.410156 C 33.867188 82.09375 39.980469 82.460938 46.515625 82.496094 C 53.289062 82.535156 60.367188 82.214844 67.558594 81.550781 L 65.902344 64.148438 C 59.097656 64.765625 53.609375 64.675781 49.121094 63.871094 Z M 66.382812 80.574219 C 53.597656 81.695312 41.429688 81.710938 30.957031 80.621094 L 49.433594 65.019531 C 53.679688 65.71875 58.761719 65.816406 64.933594 65.316406 Z M 61.914062 84.957031 C 62.453125 84.917969 63.011719 84.878906 63.574219 84.839844 L 63.402344 82.996094 C 62.785156 83.042969 62.242188 83.082031 61.738281 83.113281 L 61.914062 84.957031 " fill-opacity="1" fill-rule="nonzero"/></g></g></g></g></g></svg>