<svg xmlns="http://www.w3.org/2000/svg" xmlns:xlink="http://www.w3.org/1999/xlink" width="1080" zoomAndPan="magnify" viewBox="0 0 810 1439.999935" height="1920" preserveAspectRatio="xMidYMid meet" version="1.0"><defs><clipPath id="1d7c52f811"><path d="M 0 867.738281 L 448.910156 867.738281 L 448.910156 1439.988281 L 0 1439.988281 Z M 0 867.738281 " clip-rule="nonzero"/></clipPath><clipPath id="0cb5ef5b9d"><path d="M 440.328125 1121 L 598 1121 L 598 1440 L 440.328125 1440 Z M 440.328125 1121 " clip-rule="nonzero"/></clipPath><clipPath id="9cf46b6ec7"><path d="M 440.328125 1209 L 598 1209 L 598 1221 L 440.328125 1221 Z M 440.328125 1209 " clip-rule="nonzero"/></clipPath><clipPath id="bb039fe817"><path d="M 607 1100.289062 L 764.328125 1100.289062 L 764.328125 1440 L 607 1440 Z M 607 1100.289062 " clip-rule="nonzero"/></clipPath><clipPath id="3ec121f658"><path d="M 607 1209 L 764.328125 1209 L 764.328125 1221 L 607 1221 Z M 607 1209 " clip-rule="nonzero"/></clipPath><clipPath id="471f9c3a14"><path d="M 644 1100.289062 L 729 1100.289062 L 729 1221 L 644 1221 Z M 644 1100.289062 " clip-rule="nonzero"/></clipPath></defs><g clip-path="url(#1d7c52f811)"><path fill="#fefefe" d="M 446.578125 1431.992188 C 446.023438 1431.652344 444.863281 1431.484375 443.101562 1431.492188 C 438.664062 1431.523438 430.050781 1431.53125 417.265625 1431.511719 C 417.121094 1431.511719 417.003906 1431.398438 417.003906 1431.257812 L 417.003906 1156.621094 C 417.003906 1155.132812 415.960938 1153.851562 414.503906 1153.550781 L 414.417969 1153.535156 C 412.949219 1153.234375 411.574219 1154.355469 411.582031 1155.847656 L 411.589844 1167.996094 C 411.589844 1168.257812 411.375 1168.472656 411.113281 1168.472656 L 394.710938 1168.472656 C 394.421875 1168.472656 394.1875 1168.238281 394.1875 1167.949219 L 394.1875 1130.457031 C 394.1875 1130.230469 394.375 1130.042969 394.605469 1130.042969 L 411.140625 1130.042969 C 411.363281 1130.042969 411.542969 1130.222656 411.542969 1130.445312 L 411.542969 1141.585938 C 411.542969 1143.074219 412.847656 1144.226562 414.324219 1144.039062 L 414.550781 1144.011719 C 415.945312 1143.835938 417 1142.652344 417 1141.242188 L 417 977.320312 C 417 977.125 417.050781 976.9375 417.160156 976.777344 C 417.742188 975.878906 418.566406 975.222656 419.632812 974.8125 C 421.796875 973.976562 423.085938 972.9375 423.085938 970.90625 C 423.105469 963.582031 423.125 952.6875 423.152344 938.214844 C 423.160156 936.296875 422.480469 935.125 421.128906 934.695312 C 420.972656 934.648438 420.8125 934.625 420.644531 934.625 L 394.410156 934.625 C 394.296875 934.625 394.203125 934.535156 394.203125 934.421875 L 394.203125 880.695312 C 394.203125 880.625 394.195312 880.554688 394.175781 880.484375 C 393.921875 879.457031 393.53125 878.671875 393.007812 878.136719 C 388.027344 873.046875 384.917969 869.851562 383.683594 868.53125 C 383.214844 868.027344 382.550781 867.738281 381.863281 867.738281 L 345.839844 867.738281 C 344.886719 867.738281 343.976562 868.136719 343.320312 868.839844 L 334.042969 878.855469 C 333.507812 879.429688 333.210938 880.195312 333.210938 880.984375 L 333.210938 908.332031 C 333.210938 908.804688 333.015625 909.25 332.683594 909.582031 L 307.148438 934.410156 C 307.003906 934.550781 306.808594 934.628906 306.605469 934.628906 L 222.109375 934.628906 C 220.769531 934.628906 219.640625 935.636719 219.488281 936.960938 L 219.441406 937.332031 C 219.273438 938.75 220.386719 940.003906 221.828125 940.003906 L 225.359375 940.003906 C 225.628906 940.003906 225.84375 940.21875 225.84375 940.488281 L 225.84375 965.992188 C 225.84375 966.140625 225.789062 966.28125 225.6875 966.386719 C 225.183594 966.957031 224.574219 967.003906 223.859375 966.527344 C 206.261719 954.75 196.984375 948.558594 196.019531 947.949219 C 193.003906 946.042969 190.558594 944.382812 188.6875 942.960938 C 188.53125 942.839844 188.445312 942.660156 188.445312 942.472656 L 188.445312 929.628906 C 188.445312 929.453125 188.59375 929.3125 188.769531 929.320312 C 193.480469 929.546875 196.113281 929.113281 196.148438 923.675781 C 196.167969 919.613281 196.15625 917.273438 196.09375 916.660156 C 195.765625 913.332031 193.3125 912.671875 191.007812 911.738281 C 181.769531 908.019531 173.707031 904.746094 166.808594 901.933594 C 165.074219 901.222656 163.800781 901.027344 162.988281 901.347656 C 154.453125 904.753906 145.507812 908.347656 136.140625 912.128906 C 133.703125 913.121094 132.375 913.957031 132.175781 916.464844 C 132.113281 917.179688 132.128906 920.128906 132.199219 925.304688 C 132.261719 929.386719 136.351562 929.449219 139.460938 929.386719 C 139.667969 929.378906 139.835938 929.554688 139.835938 929.761719 L 139.835938 942.53125 C 139.835938 942.707031 139.75 942.875 139.601562 942.96875 C 89.84375 976.363281 44.511719 1006.71875 3.597656 1034.035156 C 1.425781 1035.484375 0.105469 1038.304688 2.007812 1040.429688 C 2.925781 1041.453125 3.933594 1041.992188 5.039062 1042.050781 C 6.652344 1042.140625 8.972656 1042.171875 12.003906 1042.152344 C 12.136719 1042.144531 12.242188 1042.253906 12.242188 1042.386719 L 12.242188 1091.75 C 12.242188 1091.910156 12.101562 1092.035156 11.949219 1092.015625 C 9.28125 1091.742188 6.351562 1093.332031 7.34375 1096.441406 C 7.410156 1096.640625 7.503906 1096.835938 7.632812 1097.011719 C 8.464844 1098.167969 9.835938 1098.679688 11.753906 1098.542969 C 11.980469 1098.53125 12.167969 1098.707031 12.167969 1098.933594 L 12.167969 1107.210938 C 12.167969 1107.539062 11.894531 1107.792969 11.566406 1107.769531 C 5.761719 1107.324219 5.613281 1114.449219 11.746094 1114.1875 C 12.015625 1114.175781 12.242188 1114.398438 12.242188 1114.664062 L 12.242188 1149.535156 C 12.242188 1149.734375 12.097656 1149.910156 11.894531 1149.941406 C 10.695312 1150.117188 10.066406 1150.203125 10.019531 1150.210938 C 6.707031 1150.554688 6.101562 1154.640625 8.917969 1156.0625 C 9.777344 1156.5 10.75 1156.667969 11.839844 1156.578125 C 12.050781 1156.566406 12.230469 1156.734375 12.230469 1156.949219 L 12.230469 1340.402344 C 12.230469 1340.664062 12.164062 1340.925781 12.042969 1341.152344 C 9.722656 1345.390625 7.0625 1350.015625 4.050781 1355.023438 C 3.039062 1356.710938 2.53125 1357.882812 2.523438 1358.546875 C 2.46875 1402.285156 2.457031 1426.503906 2.476562 1431.214844 C 2.476562 1431.371094 2.347656 1431.496094 2.195312 1431.496094 C -8.792969 1431.523438 -17.183594 1431.515625 -22.996094 1431.476562 C -29.503906 1431.429688 -29.449219 1439.996094 -23.308594 1439.988281 C 62.441406 1439.910156 217.953125 1439.902344 443.214844 1439.976562 C 444.808594 1439.976562 445.980469 1439.769531 446.730469 1439.347656 C 449.785156 1437.636719 449.433594 1433.75 446.578125 1431.992188 Z M 309.167969 940.453125 C 309.167969 940.207031 309.367188 940.003906 309.617188 940.003906 L 332.71875 940.046875 C 332.960938 940.046875 333.164062 940.246094 333.164062 940.496094 L 333.148438 950.203125 C 333.152344 950.449219 332.949219 950.648438 332.699219 950.648438 L 309.601562 950.609375 C 309.355469 950.609375 309.152344 950.410156 309.152344 950.160156 Z M 309.113281 956.3125 C 309.113281 956.105469 309.289062 955.929688 309.496094 955.929688 L 332.78125 955.929688 C 332.988281 955.929688 333.164062 956.105469 333.164062 956.3125 L 333.164062 966.085938 C 333.164062 966.292969 332.988281 966.46875 332.78125 966.46875 L 309.496094 966.46875 C 309.289062 966.46875 309.113281 966.292969 309.113281 966.085938 Z M 303.71875 956.214844 L 303.71875 966.179688 C 303.71875 966.328125 303.597656 966.449219 303.449219 966.449219 L 282.535156 966.449219 C 282.292969 966.449219 282.175781 966.152344 282.347656 965.988281 L 292.597656 956.019531 C 292.652344 955.972656 292.71875 955.945312 292.785156 955.945312 L 303.449219 955.945312 C 303.597656 955.945312 303.71875 956.066406 303.71875 956.214844 Z M 274.199219 966.402344 C 274.15625 966.449219 274.097656 966.46875 274.035156 966.46875 L 268.894531 966.46875 C 268.769531 966.46875 268.667969 966.367188 268.667969 966.242188 L 268.667969 956.140625 C 268.667969 956.011719 268.769531 955.910156 268.894531 955.910156 L 284.425781 955.910156 C 284.632812 955.910156 284.734375 956.160156 284.585938 956.300781 Z M 303.589844 945.996094 L 303.589844 950.101562 C 303.589844 950.367188 303.375 950.582031 303.109375 950.582031 L 298.742188 950.582031 C 298.476562 950.582031 298.355469 950.253906 298.550781 950.074219 L 303.15625 945.8125 C 303.324219 945.65625 303.589844 945.769531 303.589844 945.996094 Z M 268.660156 940.355469 C 268.660156 940.164062 268.808594 940.019531 268.996094 940.019531 L 300.414062 940.019531 C 300.714844 940.019531 300.863281 940.386719 300.648438 940.59375 L 290.464844 950.496094 C 290.398438 950.554688 290.316406 950.589844 290.230469 950.589844 L 268.996094 950.589844 C 268.808594 950.589844 268.660156 950.441406 268.660156 950.253906 Z M 231.285156 940.40625 C 231.285156 940.199219 231.460938 940.023438 231.667969 940.023438 L 262.96875 940.023438 C 263.175781 940.023438 263.351562 940.199219 263.351562 940.40625 L 263.351562 950.246094 C 263.351562 950.457031 263.175781 950.628906 262.96875 950.628906 L 231.667969 950.628906 C 231.457031 950.628906 231.285156 950.457031 231.285156 950.246094 Z M 231.265625 956.367188 C 231.265625 956.125 231.457031 955.933594 231.699219 955.933594 L 262.949219 955.933594 C 263.191406 955.933594 263.386719 956.125 263.386719 956.367188 L 263.386719 966.035156 C 263.386719 966.273438 263.191406 966.46875 262.949219 966.46875 L 231.699219 966.46875 C 231.460938 966.46875 231.265625 966.273438 231.265625 966.035156 Z M 308.296875 1032.914062 C 308.609375 1033.128906 308.886719 1033.359375 309.121094 1033.605469 C 309.160156 1033.648438 309.128906 1033.714844 309.074219 1033.714844 L 274.296875 1033.714844 C 273.890625 1033.714844 273.492188 1033.558594 273.199219 1033.285156 L 183.390625 950.121094 C 183.277344 950.011719 183.289062 949.832031 183.425781 949.75 L 183.4375 949.746094 C 183.59375 949.644531 183.792969 949.652344 183.941406 949.75 C 222.230469 975.402344 263.679688 1003.121094 308.296875 1032.914062 Z M 320.03125 1151.21875 C 319.277344 1150.226562 318.042969 1149.835938 316.339844 1150.050781 C 316.078125 1150.085938 315.84375 1149.882812 315.84375 1149.621094 L 315.84375 1114.183594 C 315.84375 1114.035156 315.996094 1113.9375 316.136719 1113.996094 C 316.371094 1114.109375 317.003906 1114.136719 318.015625 1114.082031 C 322.539062 1113.847656 321.28125 1107.199219 317.335938 1107.675781 C 316.890625 1107.730469 316.535156 1107.742188 316.273438 1107.714844 C 316.042969 1107.695312 315.871094 1107.507812 315.871094 1107.28125 L 315.871094 1098.792969 C 315.871094 1098.632812 315.996094 1098.503906 316.15625 1098.511719 C 316.273438 1098.511719 316.773438 1098.523438 317.664062 1098.546875 C 322.285156 1098.660156 321.957031 1091.300781 316.3125 1092.125 C 316.070312 1092.15625 315.847656 1091.96875 315.847656 1091.722656 L 315.847656 1042.472656 C 315.847656 1042.328125 315.964844 1042.214844 316.109375 1042.207031 L 323.597656 1042.113281 C 323.738281 1042.105469 323.878906 1042.078125 324.015625 1042.03125 C 327.574219 1040.609375 328.054688 1036.597656 325.066406 1034.417969 C 322.621094 1032.628906 314.226562 1026.976562 299.875 1017.457031 C 283.285156 1006.453125 268.792969 996.484375 255.523438 987.804688 C 253.941406 986.773438 252.53125 985.726562 251.304688 984.660156 C 251.171875 984.546875 251.257812 984.324219 251.433594 984.324219 L 309.066406 984.324219 C 309.433594 984.324219 309.78125 984.492188 310.011719 984.773438 L 332.527344 1012.21875 C 332.921875 1012.699219 333.140625 1013.308594 333.140625 1013.9375 L 333.140625 1191.835938 C 333.140625 1192.019531 332.996094 1192.164062 332.8125 1192.164062 L 316.148438 1192.164062 C 315.980469 1192.164062 315.839844 1192.023438 315.839844 1191.851562 L 315.839844 1157.09375 C 315.839844 1156.753906 316.136719 1156.480469 316.476562 1156.503906 C 318.542969 1156.667969 319.863281 1156.199219 320.433594 1155.089844 C 321.125 1153.757812 320.992188 1152.472656 320.03125 1151.21875 Z M 307.164062 1323.546875 L 279.128906 1323.546875 C 278.929688 1323.546875 278.769531 1323.382812 278.769531 1323.183594 L 278.769531 1312.230469 C 278.769531 1312.03125 278.929688 1311.867188 279.128906 1311.867188 L 307.164062 1311.867188 C 307.363281 1311.867188 307.523438 1312.03125 307.523438 1312.230469 L 307.523438 1323.183594 C 307.523438 1323.382812 307.363281 1323.546875 307.164062 1323.546875 Z M 307.5 1329.070312 L 307.5 1337.929688 C 307.5 1338.097656 307.363281 1338.230469 307.195312 1338.230469 L 279.125 1338.230469 C 278.957031 1338.230469 278.824219 1338.097656 278.824219 1337.929688 L 278.824219 1329.070312 C 278.824219 1328.902344 278.957031 1328.765625 279.125 1328.765625 L 307.195312 1328.765625 C 307.363281 1328.765625 307.5 1328.902344 307.5 1329.070312 Z M 278.769531 1156.71875 C 278.769531 1156.605469 278.863281 1156.511719 278.976562 1156.511719 L 307.289062 1156.511719 C 307.40625 1156.511719 307.5 1156.605469 307.5 1156.71875 L 307.5 1255.132812 C 307.5 1255.25 307.40625 1255.34375 307.289062 1255.34375 L 278.976562 1255.34375 C 278.863281 1255.34375 278.769531 1255.25 278.769531 1255.132812 Z M 278.761719 1149.855469 L 278.761719 1114.355469 C 278.761719 1114.183594 278.902344 1114.042969 279.078125 1114.042969 L 307.175781 1114.042969 C 307.351562 1114.042969 307.492188 1114.183594 307.492188 1114.355469 L 307.492188 1149.855469 C 307.492188 1150.03125 307.351562 1150.171875 307.175781 1150.171875 L 279.078125 1150.171875 C 278.902344 1150.171875 278.761719 1150.03125 278.761719 1149.855469 Z M 307.167969 1107.84375 L 279.097656 1107.84375 C 278.910156 1107.84375 278.761719 1107.695312 278.761719 1107.507812 L 278.761719 1098.820312 C 278.761719 1098.632812 278.910156 1098.484375 279.097656 1098.484375 L 307.167969 1098.484375 C 307.359375 1098.484375 307.503906 1098.632812 307.503906 1098.820312 L 307.503906 1107.507812 C 307.503906 1107.695312 307.359375 1107.84375 307.167969 1107.84375 Z M 307.5 1091.828125 C 307.5 1091.996094 307.359375 1092.136719 307.191406 1092.136719 L 279.050781 1092.136719 C 278.882812 1092.136719 278.742188 1091.996094 278.742188 1091.828125 L 278.742188 1042.507812 C 278.742188 1042.339844 278.882812 1042.199219 279.050781 1042.199219 L 307.191406 1042.199219 C 307.359375 1042.199219 307.5 1042.339844 307.5 1042.507812 Z M 278.996094 1260.585938 L 307.257812 1260.585938 C 307.40625 1260.585938 307.523438 1260.703125 307.523438 1260.851562 L 307.523438 1272.152344 C 307.523438 1272.300781 307.402344 1272.421875 307.257812 1272.421875 L 278.996094 1272.421875 C 278.847656 1272.421875 278.730469 1272.300781 278.730469 1272.152344 L 278.730469 1260.851562 C 278.730469 1260.703125 278.847656 1260.585938 278.996094 1260.585938 Z M 278.855469 1306.273438 L 278.855469 1295.023438 C 278.855469 1294.855469 278.996094 1294.714844 279.164062 1294.714844 L 307.210938 1294.714844 C 307.378906 1294.714844 307.519531 1294.855469 307.519531 1295.023438 L 307.519531 1306.273438 C 307.519531 1306.4375 307.378906 1306.578125 307.210938 1306.578125 L 279.164062 1306.578125 C 278.996094 1306.578125 278.855469 1306.4375 278.855469 1306.273438 Z M 307.523438 1289.089844 C 307.523438 1289.265625 307.378906 1289.40625 307.207031 1289.40625 L 279.09375 1289.355469 C 278.921875 1289.351562 278.78125 1289.210938 278.78125 1289.039062 L 278.800781 1277.941406 C 278.796875 1277.761719 278.945312 1277.621094 279.113281 1277.625 L 307.226562 1277.675781 C 307.398438 1277.675781 307.539062 1277.816406 307.542969 1277.988281 Z M 122.449219 1150.179688 L 55.003906 1150.179688 C 54.8125 1150.179688 54.660156 1150.023438 54.660156 1149.835938 L 54.660156 1114.378906 C 54.660156 1114.191406 54.8125 1114.035156 55.003906 1114.035156 L 122.449219 1114.035156 C 122.636719 1114.035156 122.789062 1114.191406 122.789062 1114.378906 L 122.789062 1149.835938 C 122.789062 1150.023438 122.636719 1150.179688 122.449219 1150.179688 Z M 122.777344 1156.742188 L 122.777344 1337.976562 C 122.777344 1338.109375 122.664062 1338.226562 122.527344 1338.226562 L 54.933594 1338.226562 C 54.800781 1338.226562 54.6875 1338.109375 54.6875 1337.976562 L 54.6875 1156.742188 C 54.6875 1156.605469 54.800781 1156.492188 54.933594 1156.492188 L 122.527344 1156.492188 C 122.664062 1156.492188 122.777344 1156.605469 122.777344 1156.742188 Z M 54.652344 1107.546875 L 54.652344 1098.765625 C 54.652344 1098.605469 54.789062 1098.472656 54.949219 1098.472656 L 122.476562 1098.472656 C 122.636719 1098.472656 122.769531 1098.605469 122.769531 1098.765625 L 122.769531 1107.546875 C 122.769531 1107.707031 122.636719 1107.84375 122.476562 1107.84375 L 54.949219 1107.84375 C 54.789062 1107.84375 54.652344 1107.707031 54.652344 1107.546875 Z M 122.476562 1092.144531 L 54.988281 1092.144531 C 54.800781 1092.144531 54.652344 1091.996094 54.652344 1091.808594 L 54.652344 1042.527344 C 54.652344 1042.339844 54.800781 1042.191406 54.988281 1042.191406 L 122.472656 1042.191406 C 122.664062 1042.191406 122.808594 1042.339844 122.808594 1042.527344 L 122.808594 1091.808594 C 122.808594 1091.996094 122.664062 1092.144531 122.476562 1092.144531 Z M 122.308594 1033.558594 C 122.273438 1033.632812 122.199219 1033.6875 122.113281 1033.6875 L 63.046875 1033.6875 C 62.859375 1033.6875 62.765625 1033.453125 62.90625 1033.324219 L 153.382812 949.550781 C 153.421875 949.515625 153.46875 949.496094 153.523438 949.496094 L 155.65625 949.496094 C 155.800781 949.496094 155.902344 949.644531 155.847656 949.785156 Z M 128.144531 1042.535156 C 128.144531 1042.347656 128.300781 1042.191406 128.488281 1042.191406 L 199.5 1042.191406 C 199.6875 1042.191406 199.839844 1042.347656 199.839844 1042.535156 L 199.839844 1091.800781 C 199.839844 1091.988281 199.6875 1092.144531 199.5 1092.144531 L 128.488281 1092.144531 C 128.300781 1092.144531 128.144531 1091.988281 128.144531 1091.800781 Z M 128.105469 1098.753906 C 128.105469 1098.597656 128.234375 1098.472656 128.386719 1098.472656 L 199.558594 1098.472656 C 199.714844 1098.472656 199.839844 1098.597656 199.839844 1098.753906 L 199.839844 1107.5625 C 199.839844 1107.714844 199.714844 1107.84375 199.558594 1107.84375 L 128.386719 1107.84375 C 128.234375 1107.84375 128.105469 1107.714844 128.105469 1107.5625 Z M 199.839844 1114.265625 L 199.839844 1149.949219 C 199.839844 1150.078125 199.738281 1150.179688 199.613281 1150.179688 L 128.359375 1150.179688 C 128.234375 1150.179688 128.132812 1150.078125 128.132812 1149.949219 L 128.132812 1114.265625 C 128.132812 1114.136719 128.234375 1114.035156 128.359375 1114.035156 L 199.613281 1114.035156 C 199.742188 1114.035156 199.839844 1114.136719 199.839844 1114.265625 Z M 128.132812 1156.820312 C 128.132812 1156.648438 128.273438 1156.507812 128.449219 1156.507812 L 199.554688 1156.507812 C 199.726562 1156.507812 199.867188 1156.648438 199.867188 1156.820312 L 199.867188 1337.910156 C 199.867188 1338.082031 199.726562 1338.226562 199.554688 1338.226562 L 128.449219 1338.226562 C 128.273438 1338.226562 128.132812 1338.082031 128.132812 1337.910156 Z M 199.660156 1033.660156 L 128.449219 1033.660156 C 128.300781 1033.660156 128.191406 1033.503906 128.253906 1033.363281 L 161.773438 949.652344 C 161.808594 949.570312 161.890625 949.515625 161.976562 949.515625 L 166.078125 949.515625 C 166.164062 949.515625 166.246094 949.570312 166.277344 949.652344 L 199.855469 1033.363281 C 199.914062 1033.503906 199.808594 1033.660156 199.660156 1033.660156 Z M 172.332031 950.179688 C 172.21875 949.898438 172.417969 949.597656 172.71875 949.597656 L 174.75 949.597656 C 174.890625 949.597656 175.03125 949.652344 175.140625 949.75 L 265.589844 1033.558594 C 265.632812 1033.597656 265.605469 1033.671875 265.542969 1033.671875 L 206.167969 1033.671875 C 205.960938 1033.671875 205.765625 1033.546875 205.6875 1033.34375 Z M 205.195312 1098.792969 C 205.195312 1098.613281 205.335938 1098.472656 205.519531 1098.472656 L 272.992188 1098.472656 C 273.171875 1098.472656 273.3125 1098.613281 273.3125 1098.792969 L 273.3125 1107.519531 C 273.3125 1107.703125 273.171875 1107.84375 272.992188 1107.84375 L 205.519531 1107.84375 C 205.335938 1107.84375 205.195312 1107.703125 205.195312 1107.519531 Z M 205.21875 1114.308594 C 205.21875 1114.15625 205.335938 1114.035156 205.492188 1114.035156 L 273.042969 1114.035156 C 273.199219 1114.035156 273.320312 1114.15625 273.320312 1114.308594 L 273.320312 1149.902344 C 273.320312 1150.058594 273.199219 1150.179688 273.042969 1150.179688 L 205.492188 1150.179688 C 205.335938 1150.179688 205.21875 1150.058594 205.21875 1149.902344 Z M 205.238281 1156.863281 C 205.238281 1156.660156 205.402344 1156.492188 205.605469 1156.492188 L 272.957031 1156.492188 C 273.160156 1156.492188 273.324219 1156.660156 273.324219 1156.863281 L 273.324219 1337.871094 C 273.324219 1338.070312 273.160156 1338.238281 272.957031 1338.238281 L 205.605469 1338.238281 C 205.402344 1338.238281 205.238281 1338.070312 205.238281 1337.871094 Z M 273.078125 1092.152344 L 205.484375 1092.152344 C 205.335938 1092.152344 205.222656 1092.035156 205.222656 1091.890625 L 205.222656 1042.460938 C 205.222656 1042.3125 205.335938 1042.199219 205.484375 1042.199219 L 273.078125 1042.199219 C 273.226562 1042.199219 273.339844 1042.3125 273.339844 1042.460938 L 273.339844 1091.890625 C 273.339844 1092.035156 273.226562 1092.152344 273.078125 1092.152344 Z M 140.988281 918.964844 L 163.644531 909.960938 C 163.90625 909.855469 164.199219 909.855469 164.460938 909.960938 L 187.117188 918.964844 C 188.257812 919.421875 187.929688 921.117188 186.710938 921.117188 L 141.398438 921.117188 C 140.175781 921.117188 139.847656 919.421875 140.988281 918.964844 Z M 19.308594 1033.527344 C 19.542969 1033.285156 19.816406 1033.058594 20.132812 1032.84375 C 64.632812 1003.066406 105.984375 975.371094 144.171875 949.738281 C 144.328125 949.636719 144.519531 949.632812 144.675781 949.730469 L 144.6875 949.738281 C 144.824219 949.820312 144.835938 950 144.722656 950.105469 L 55.164062 1033.175781 C 54.859375 1033.453125 54.472656 1033.605469 54.0625 1033.605469 L 19.355469 1033.632812 C 19.300781 1033.632812 19.269531 1033.566406 19.308594 1033.527344 Z M 48.949219 1150.164062 L 20.902344 1150.164062 C 20.742188 1150.164062 20.617188 1150.039062 20.617188 1149.875 L 20.617188 1114.324219 C 20.617188 1114.164062 20.742188 1114.035156 20.902344 1114.035156 L 48.949219 1114.035156 C 49.109375 1114.035156 49.238281 1114.164062 49.238281 1114.324219 L 49.238281 1149.875 C 49.238281 1150.039062 49.109375 1150.164062 48.949219 1150.164062 Z M 49.238281 1156.746094 L 49.238281 1255.082031 C 49.238281 1255.214844 49.125 1255.328125 48.988281 1255.328125 L 20.863281 1255.328125 C 20.730469 1255.328125 20.617188 1255.214844 20.617188 1255.082031 L 20.617188 1156.746094 C 20.617188 1156.613281 20.730469 1156.5 20.863281 1156.5 L 48.988281 1156.5 C 49.125 1156.5 49.238281 1156.613281 49.238281 1156.746094 Z M 20.867188 1098.488281 L 48.953125 1098.441406 C 49.097656 1098.4375 49.21875 1098.558594 49.214844 1098.703125 L 49.230469 1107.5625 C 49.230469 1107.707031 49.117188 1107.824219 48.972656 1107.824219 L 20.886719 1107.875 C 20.742188 1107.875 20.621094 1107.753906 20.625 1107.613281 L 20.609375 1098.75 C 20.609375 1098.605469 20.722656 1098.492188 20.867188 1098.488281 Z M 20.628906 1091.890625 L 20.628906 1042.421875 C 20.628906 1042.285156 20.742188 1042.171875 20.878906 1042.171875 L 48.988281 1042.171875 C 49.125 1042.171875 49.238281 1042.285156 49.238281 1042.421875 L 49.238281 1091.890625 C 49.238281 1092.023438 49.125 1092.136719 48.988281 1092.136719 L 20.878906 1092.136719 C 20.742188 1092.136719 20.628906 1092.023438 20.628906 1091.890625 Z M 20.804688 1260.585938 L 49.035156 1260.585938 C 49.164062 1260.585938 49.265625 1260.683594 49.265625 1260.8125 L 49.265625 1272.179688 C 49.265625 1272.308594 49.164062 1272.40625 49.035156 1272.40625 L 20.804688 1272.40625 C 20.675781 1272.40625 20.574219 1272.308594 20.574219 1272.179688 L 20.574219 1260.8125 C 20.574219 1260.683594 20.675781 1260.585938 20.804688 1260.585938 Z M 20.59375 1277.90625 C 20.589844 1277.742188 20.722656 1277.609375 20.886719 1277.613281 L 48.972656 1277.660156 C 49.136719 1277.664062 49.265625 1277.789062 49.265625 1277.957031 L 49.246094 1289.109375 C 49.25 1289.273438 49.117188 1289.40625 48.953125 1289.40625 L 20.867188 1289.355469 C 20.703125 1289.351562 20.574219 1289.226562 20.574219 1289.058594 Z M 48.984375 1306.585938 L 20.921875 1306.585938 C 20.757812 1306.585938 20.621094 1306.453125 20.621094 1306.285156 L 20.621094 1295.023438 C 20.621094 1294.855469 20.757812 1294.722656 20.921875 1294.722656 L 48.984375 1294.722656 C 49.152344 1294.722656 49.285156 1294.855469 49.285156 1295.023438 L 49.285156 1306.285156 C 49.285156 1306.453125 49.152344 1306.585938 48.984375 1306.585938 Z M 49.265625 1312.089844 L 49.265625 1323.3125 C 49.265625 1323.4375 49.164062 1323.539062 49.035156 1323.539062 L 20.804688 1323.539062 C 20.675781 1323.539062 20.574219 1323.4375 20.574219 1323.3125 L 20.574219 1312.089844 C 20.574219 1311.960938 20.675781 1311.863281 20.804688 1311.863281 L 49.035156 1311.863281 C 49.164062 1311.863281 49.265625 1311.960938 49.265625 1312.089844 Z M 20.578125 1328.964844 C 20.574219 1328.835938 20.675781 1328.734375 20.804688 1328.734375 L 49.066406 1328.785156 C 49.191406 1328.789062 49.292969 1328.886719 49.292969 1329.011719 L 49.277344 1338.050781 C 49.277344 1338.179688 49.175781 1338.277344 49.046875 1338.277344 L 20.789062 1338.226562 C 20.664062 1338.226562 20.5625 1338.125 20.5625 1338 Z M 14.476562 1354.078125 L 18.785156 1346.625 C 18.824219 1346.554688 18.90625 1346.507812 18.988281 1346.507812 L 309.019531 1346.507812 C 309.101562 1346.507812 309.179688 1346.554688 309.21875 1346.628906 L 313.523438 1354.082031 C 313.609375 1354.238281 313.496094 1354.433594 313.316406 1354.433594 L 14.683594 1354.433594 C 14.503906 1354.433594 14.390625 1354.238281 14.476562 1354.078125 Z M 32.085938 1431.167969 C 32.085938 1431.371094 31.921875 1431.53125 31.722656 1431.53125 L 11.15625 1431.53125 C 10.957031 1431.53125 10.796875 1431.371094 10.796875 1431.167969 L 10.796875 1363.09375 C 10.796875 1362.890625 10.957031 1362.730469 11.15625 1362.730469 L 31.722656 1362.730469 C 31.921875 1362.730469 32.085938 1362.890625 32.085938 1363.09375 Z M 110.878906 1431.242188 C 110.878906 1431.398438 110.757812 1431.515625 110.605469 1431.515625 L 37.847656 1431.515625 C 37.695312 1431.515625 37.574219 1431.398438 37.574219 1431.242188 L 37.574219 1363.007812 C 37.574219 1362.851562 37.695312 1362.730469 37.847656 1362.730469 L 110.605469 1362.730469 C 110.757812 1362.730469 110.878906 1362.851562 110.878906 1363.007812 Z M 176.835938 1414.15625 L 176.605469 1414.15625 C 175.207031 1414.164062 174.074219 1413.039062 174.066406 1411.644531 L 174.03125 1404.726562 C 174.019531 1403.332031 175.148438 1402.191406 176.542969 1402.1875 L 176.769531 1402.183594 C 178.171875 1402.179688 179.304688 1403.304688 179.3125 1404.699219 L 179.347656 1411.617188 C 179.355469 1413.011719 178.230469 1414.148438 176.835938 1414.15625 Z M 212.015625 1431.289062 C 212.015625 1431.421875 211.90625 1431.53125 211.777344 1431.53125 L 188.339844 1431.53125 C 188.105469 1431.53125 187.917969 1431.34375 187.917969 1431.109375 C 187.882812 1414.457031 187.890625 1399.496094 187.9375 1386.21875 C 187.949219 1382.210938 187.632812 1379.664062 186.996094 1378.582031 C 184.644531 1374.621094 181.816406 1374.039062 176.84375 1374 C 176.179688 1373.992188 171.929688 1373.984375 164.101562 1373.984375 C 156.265625 1373.984375 152.023438 1373.984375 151.359375 1373.992188 C 146.382812 1374.03125 143.554688 1374.617188 141.195312 1378.570312 C 140.558594 1379.65625 140.242188 1382.195312 140.257812 1386.203125 C 140.296875 1399.484375 140.296875 1414.445312 140.257812 1431.09375 C 140.257812 1431.328125 140.070312 1431.515625 139.835938 1431.515625 L 116.394531 1431.511719 C 116.261719 1431.511719 116.160156 1431.402344 116.160156 1431.269531 L 116.195312 1363.003906 C 116.195312 1362.839844 116.328125 1362.703125 116.496094 1362.703125 C 119.304688 1362.71875 135.175781 1362.722656 164.101562 1362.730469 C 193.03125 1362.738281 208.894531 1362.738281 211.710938 1362.722656 C 211.878906 1362.722656 212.011719 1362.859375 212.011719 1363.027344 L 212.011719 1431.289062 Z M 294.796875 1386.230469 C 294.796875 1386.378906 294.675781 1386.5 294.527344 1386.507812 C 292.382812 1386.558594 290.296875 1386.558594 288.273438 1386.511719 C 285.410156 1386.441406 283.355469 1386.539062 282.085938 1386.828125 C 276.121094 1388.175781 270.992188 1393.449219 270.015625 1399.664062 C 268.976562 1406.28125 271.160156 1411.589844 276.578125 1415.589844 C 281.8125 1419.457031 288.347656 1418.367188 294.554688 1418.519531 C 294.683594 1418.527344 294.789062 1418.632812 294.789062 1418.761719 L 294.789062 1431.128906 C 294.789062 1431.34375 294.613281 1431.519531 294.40625 1431.519531 L 217.730469 1431.519531 C 217.515625 1431.519531 217.34375 1431.34375 217.34375 1431.128906 L 217.34375 1363.128906 C 217.34375 1362.90625 217.515625 1362.730469 217.738281 1362.730469 L 294.347656 1362.730469 C 294.59375 1362.730469 294.796875 1362.933594 294.796875 1363.179688 Z M 317.210938 1431.140625 C 317.210938 1431.335938 317.058594 1431.492188 316.863281 1431.492188 L 300.414062 1431.492188 C 300.21875 1431.492188 300.0625 1431.335938 300.0625 1431.140625 L 300.0625 1418.835938 C 300.0625 1418.640625 300.21875 1418.488281 300.414062 1418.488281 L 316.863281 1418.488281 C 317.058594 1418.488281 317.210938 1418.640625 317.210938 1418.835938 Z M 317.183594 1386.328125 C 317.183594 1386.464844 317.070312 1386.574219 316.933594 1386.574219 L 300.339844 1386.546875 C 300.199219 1386.546875 300.089844 1386.433594 300.089844 1386.296875 L 300.132812 1362.957031 C 300.132812 1362.820312 300.246094 1362.710938 300.378906 1362.710938 L 316.976562 1362.738281 C 317.117188 1362.738281 317.222656 1362.851562 317.222656 1362.988281 Z M 332.671875 1431.5 L 325.941406 1431.523438 C 325.683594 1431.523438 325.46875 1431.316406 325.46875 1431.054688 L 325.429688 1418.988281 C 325.429688 1418.726562 325.636719 1418.519531 325.894531 1418.519531 L 332.625 1418.496094 C 332.882812 1418.492188 333.097656 1418.703125 333.097656 1418.960938 L 333.136719 1431.027344 C 333.136719 1431.289062 332.929688 1431.496094 332.671875 1431.5 Z M 333.171875 1385.984375 C 333.171875 1386.285156 332.921875 1386.535156 332.621094 1386.535156 L 325.785156 1386.535156 C 325.628906 1386.535156 325.507812 1386.414062 325.507812 1386.265625 C 325.507812 1377.304688 325.480469 1368.496094 325.433594 1359.84375 C 325.429688 1358.402344 325.132812 1357.179688 324.550781 1356.175781 C 321.753906 1351.335938 318.992188 1346.523438 316.257812 1341.730469 C 316.003906 1341.289062 315.871094 1340.785156 315.871094 1340.277344 L 315.871094 1215.238281 C 315.871094 1215.117188 315.964844 1215.023438 316.085938 1215.023438 L 332.933594 1215.023438 C 333.0625 1215.023438 333.171875 1215.132812 333.171875 1215.257812 Z M 333.171875 999.328125 C 333.171875 999.515625 332.9375 999.601562 332.816406 999.453125 L 320.6875 984.675781 C 320.582031 984.539062 320.675781 984.347656 320.84375 984.347656 L 332.96875 984.347656 C 333.082031 984.347656 333.171875 984.433594 333.171875 984.546875 Z M 333.203125 978.707031 C 333.203125 978.828125 333.109375 978.921875 332.988281 978.921875 L 243.054688 978.921875 C 243.015625 978.921875 242.976562 978.917969 242.949219 978.894531 L 236.648438 975.261719 C 236.460938 975.148438 236.539062 974.859375 236.753906 974.859375 L 332.988281 974.859375 C 333.109375 974.859375 333.203125 974.953125 333.203125 975.074219 Z M 333.109375 934.46875 C 333.101562 934.597656 333.003906 934.695312 332.875 934.695312 L 315.472656 934.582031 C 315.265625 934.582031 315.171875 934.335938 315.3125 934.195312 L 332.855469 916.898438 C 332.996094 916.757812 333.242188 916.859375 333.238281 917.0625 Z M 341.542969 899.988281 C 341.542969 899.875 341.636719 899.78125 341.75 899.78125 L 351.898438 899.78125 C 352.011719 899.78125 352.105469 899.875 352.105469 899.988281 L 352.105469 966.242188 C 352.105469 966.355469 352.011719 966.449219 351.898438 966.449219 L 341.75 966.449219 C 341.636719 966.449219 341.542969 966.355469 341.542969 966.242188 Z M 352.214844 1431.203125 C 352.214844 1431.390625 352.058594 1431.542969 351.871094 1431.542969 L 341.898438 1431.542969 C 341.710938 1431.542969 341.554688 1431.390625 341.554688 1431.203125 L 341.554688 1337.800781 C 341.554688 1337.613281 341.710938 1337.460938 341.898438 1337.460938 L 351.871094 1337.460938 C 352.058594 1337.460938 352.214844 1337.613281 352.214844 1337.800781 Z M 357.523438 931.171875 C 357.523438 930.949219 357.765625 930.800781 357.957031 930.910156 C 359.789062 931.914062 361.699219 932.410156 363.703125 932.410156 C 365.707031 932.402344 367.625 931.902344 369.449219 930.894531 C 369.640625 930.789062 369.882812 930.929688 369.882812 931.15625 L 369.882812 966.179688 C 369.882812 966.292969 369.796875 966.386719 369.683594 966.394531 C 369.199219 966.414062 367.222656 966.433594 363.75 966.433594 C 360.277344 966.441406 358.292969 966.429688 357.8125 966.410156 C 357.695312 966.402344 357.609375 966.308594 357.609375 966.195312 Z M 358.09375 991.285156 L 369.835938 1007.027344 C 369.871094 1007.070312 369.882812 1007.117188 369.882812 1007.164062 L 369.882812 1020.152344 C 369.882812 1020.28125 369.78125 1020.382812 369.65625 1020.382812 L 357.910156 1020.382812 C 357.785156 1020.382812 357.683594 1020.28125 357.683594 1020.152344 L 357.683594 991.417969 C 357.683594 991.203125 357.964844 991.109375 358.09375 991.285156 Z M 357.683594 981.683594 L 357.683594 975.148438 C 357.683594 974.96875 357.832031 974.820312 358.011719 974.820312 L 369.546875 974.820312 C 369.726562 974.820312 369.875 974.96875 369.875 975.148438 L 369.875 997.140625 C 369.875 997.464844 369.472656 997.589844 369.285156 997.34375 L 357.75 981.878906 C 357.703125 981.824219 357.683594 981.75 357.683594 981.683594 Z M 357.695312 1026.078125 C 357.695312 1025.878906 357.859375 1025.71875 358.058594 1025.71875 L 369.347656 1025.75 C 369.722656 1025.75 369.929688 1026.191406 369.6875 1026.480469 L 357.910156 1040.410156 C 357.824219 1040.515625 357.648438 1040.457031 357.648438 1040.316406 Z M 357.671875 1176.003906 C 357.671875 1175.953125 357.691406 1175.898438 357.722656 1175.851562 L 369.480469 1161.863281 C 369.621094 1161.695312 369.894531 1161.789062 369.894531 1162.007812 L 369.894531 1249.375 C 369.894531 1249.597656 369.609375 1249.691406 369.472656 1249.511719 L 357.71875 1233.75 C 357.683594 1233.710938 357.671875 1233.664062 357.671875 1233.609375 Z M 369.488281 1123.796875 L 357.71875 1108.015625 C 357.683594 1107.976562 357.671875 1107.929688 357.671875 1107.882812 L 357.671875 1049.3125 C 357.671875 1049.257812 357.691406 1049.210938 357.722656 1049.171875 L 369.496094 1035.160156 C 369.628906 1035 369.894531 1035.101562 369.894531 1035.308594 L 369.894531 1123.660156 C 369.894531 1123.875 369.613281 1123.96875 369.488281 1123.796875 Z M 369.882812 1146.492188 C 369.882812 1146.765625 369.660156 1146.988281 369.386719 1146.996094 L 358.011719 1147.015625 C 357.859375 1147.015625 357.730469 1146.886719 357.730469 1146.734375 L 357.671875 1117.488281 C 357.671875 1117.339844 357.859375 1117.28125 357.945312 1117.394531 L 369.46875 1132.785156 C 369.722656 1133.113281 369.855469 1133.523438 369.855469 1133.9375 Z M 369.890625 911.980469 C 369.890625 912.179688 369.675781 912.316406 369.496094 912.234375 C 367.328125 911.222656 365.40625 910.71875 363.710938 910.71875 C 362.019531 910.71875 360.097656 911.222656 357.933594 912.222656 C 357.742188 912.308594 357.535156 912.175781 357.535156 911.972656 L 357.550781 900.332031 C 357.550781 900.082031 357.738281 899.875 357.980469 899.855469 C 358.308594 899.820312 360.21875 899.808594 363.722656 899.808594 C 367.222656 899.816406 369.132812 899.828125 369.460938 899.863281 C 369.703125 899.882812 369.890625 900.089844 369.890625 900.335938 Z M 369.882812 1431.183594 C 369.882812 1431.363281 369.742188 1431.503906 369.5625 1431.503906 L 357.953125 1431.503906 C 357.769531 1431.503906 357.628906 1431.363281 357.628906 1431.183594 L 357.628906 1378.628906 C 357.628906 1378.449219 357.769531 1378.308594 357.953125 1378.308594 L 369.5625 1378.308594 C 369.742188 1378.308594 369.882812 1378.449219 369.882812 1378.628906 Z M 369.890625 1372.707031 C 369.890625 1372.867188 369.753906 1373 369.59375 1373 L 357.957031 1373 C 357.796875 1373 357.664062 1372.867188 357.664062 1372.707031 L 357.664062 1301.929688 C 357.664062 1301.859375 357.691406 1301.792969 357.730469 1301.742188 L 369.367188 1287.886719 C 369.546875 1287.679688 369.890625 1287.804688 369.890625 1288.082031 Z M 369.816406 1279.015625 L 357.984375 1293.09375 C 357.898438 1293.199219 357.730469 1293.140625 357.730469 1293 L 357.722656 1278.648438 C 357.722656 1278.445312 357.890625 1278.28125 358.09375 1278.28125 L 369.46875 1278.28125 C 369.847656 1278.28125 370.058594 1278.722656 369.816406 1279.015625 Z M 369.929688 1272.386719 C 369.929688 1272.664062 369.703125 1272.890625 369.425781 1272.890625 L 357.953125 1272.890625 C 357.796875 1272.890625 357.671875 1272.761719 357.671875 1272.609375 L 357.671875 1243.097656 C 357.671875 1242.949219 357.859375 1242.886719 357.945312 1243.003906 L 369.539062 1258.554688 C 369.796875 1258.890625 369.929688 1259.296875 369.929688 1259.71875 Z M 369.9375 1153.054688 L 357.972656 1167.292969 C 357.882812 1167.398438 357.710938 1167.339844 357.710938 1167.199219 L 357.710938 1152.679688 C 357.710938 1152.476562 357.878906 1152.308594 358.078125 1152.308594 L 369.589844 1152.308594 C 369.96875 1152.308594 370.183594 1152.757812 369.9375 1153.054688 Z M 385.816406 1431.117188 C 385.816406 1431.355469 385.617188 1431.558594 385.375 1431.558594 L 375.640625 1431.558594 C 375.398438 1431.558594 375.199219 1431.355469 375.199219 1431.117188 L 375.199219 1337.957031 C 375.199219 1337.714844 375.398438 1337.515625 375.640625 1337.515625 L 385.375 1337.515625 C 385.617188 1337.515625 385.816406 1337.714844 385.816406 1337.957031 Z M 375.226562 966.085938 L 375.226562 900.089844 C 375.226562 899.914062 375.367188 899.773438 375.539062 899.773438 L 385.488281 899.773438 C 385.664062 899.773438 385.804688 899.914062 385.804688 900.089844 L 385.804688 966.085938 C 385.804688 966.261719 385.664062 966.402344 385.488281 966.402344 L 375.539062 966.402344 C 375.367188 966.402344 375.226562 966.261719 375.226562 966.085938 Z M 385.851562 893.933594 C 385.851562 894.210938 385.628906 894.4375 385.355469 894.4375 C 384.832031 894.4375 377.613281 894.445312 363.703125 894.445312 C 349.792969 894.453125 342.582031 894.453125 342.058594 894.445312 C 341.785156 894.445312 341.5625 894.222656 341.5625 893.941406 L 341.554688 883.164062 C 341.554688 882.84375 341.683594 882.527344 341.910156 882.285156 C 343.867188 880.308594 345.578125 878.570312 347.039062 877.0625 C 347.734375 876.351562 348.464844 876 349.222656 876.003906 C 349.539062 876.003906 354.367188 876.003906 363.703125 876.003906 C 373.039062 876 377.867188 876 378.179688 876 C 378.9375 875.992188 379.667969 876.347656 380.367188 877.058594 C 381.828125 878.566406 383.539062 880.300781 385.496094 882.277344 C 385.722656 882.511719 385.851562 882.828125 385.851562 883.15625 Z M 411.597656 1191.867188 L 411.554688 1204.09375 C 411.554688 1204.25 411.421875 1204.378906 411.265625 1204.382812 L 394.507812 1204.324219 C 394.347656 1204.324219 394.222656 1204.191406 394.222656 1204.035156 L 394.261719 1191.808594 C 394.261719 1191.648438 394.394531 1191.523438 394.550781 1191.519531 L 411.308594 1191.578125 C 411.46875 1191.578125 411.597656 1191.710938 411.597656 1191.867188 Z M 411.53125 1221.839844 C 411.535156 1222.042969 411.367188 1222.207031 411.164062 1222.207031 L 394.566406 1222.238281 C 394.363281 1222.234375 394.203125 1222.074219 394.199219 1221.867188 L 394.175781 1209.976562 C 394.175781 1209.773438 394.34375 1209.605469 394.546875 1209.609375 L 411.140625 1209.578125 C 411.347656 1209.582031 411.507812 1209.742188 411.511719 1209.945312 Z M 411.542969 1124.386719 C 411.542969 1124.605469 411.363281 1124.789062 411.140625 1124.789062 L 394.597656 1124.789062 C 394.375 1124.789062 394.195312 1124.605469 394.195312 1124.386719 L 394.195312 1112.667969 C 394.195312 1112.445312 394.375 1112.265625 394.597656 1112.265625 L 411.140625 1112.265625 C 411.363281 1112.265625 411.542969 1112.445312 411.542969 1112.667969 Z M 411.550781 1106.53125 C 411.550781 1106.757812 411.367188 1106.945312 411.136719 1106.945312 L 394.648438 1106.914062 C 394.417969 1106.917969 394.226562 1106.730469 394.230469 1106.5 L 394.253906 1094.621094 C 394.253906 1094.394531 394.4375 1094.207031 394.667969 1094.207031 L 411.15625 1094.234375 C 411.386719 1094.234375 411.574219 1094.421875 411.574219 1094.652344 Z M 394.226562 940.46875 C 394.226562 940.21875 394.429688 940.019531 394.675781 940.019531 L 417.214844 940.019531 C 417.460938 940.019531 417.660156 940.21875 417.660156 940.46875 L 417.660156 950.214844 C 417.660156 950.460938 417.460938 950.664062 417.214844 950.664062 L 394.675781 950.664062 C 394.429688 950.664062 394.226562 950.460938 394.226562 950.214844 Z M 394.222656 956.226562 C 394.222656 956.050781 394.363281 955.910156 394.535156 955.910156 L 417.3125 955.910156 C 417.488281 955.910156 417.628906 956.050781 417.628906 956.226562 L 417.628906 966.148438 C 417.628906 966.320312 417.488281 966.460938 417.3125 966.460938 L 394.535156 966.460938 C 394.363281 966.460938 394.222656 966.320312 394.222656 966.148438 Z M 395.449219 999.105469 L 411.066406 983.21875 C 411.207031 983.070312 411.457031 983.171875 411.457031 983.375 L 411.582031 999.121094 C 411.582031 999.246094 411.484375 999.347656 411.355469 999.347656 L 395.617188 999.496094 C 395.410156 999.496094 395.308594 999.253906 395.449219 999.105469 Z M 394.609375 988.449219 C 394.484375 988.589844 394.242188 988.496094 394.242188 988.300781 L 394.242188 974.96875 C 394.242188 974.847656 394.335938 974.753906 394.457031 974.753906 L 406.808594 974.753906 C 406.996094 974.753906 407.09375 974.976562 406.964844 975.117188 Z M 394.214844 1005.304688 C 394.214844 1005.050781 394.417969 1004.851562 394.671875 1004.851562 L 411.078125 1004.851562 C 411.335938 1004.851562 411.535156 1005.050781 411.535156 1005.304688 L 411.535156 1016.996094 C 411.535156 1017.25 411.335938 1017.453125 411.078125 1017.453125 L 394.671875 1017.453125 C 394.417969 1017.453125 394.214844 1017.25 394.214844 1016.996094 Z M 394.191406 1022.964844 C 394.195312 1022.792969 394.328125 1022.660156 394.5 1022.660156 L 411.285156 1022.6875 C 411.457031 1022.6875 411.597656 1022.828125 411.59375 1022.996094 L 411.570312 1035.050781 C 411.570312 1035.222656 411.433594 1035.355469 411.261719 1035.355469 L 394.480469 1035.328125 C 394.308594 1035.328125 394.167969 1035.1875 394.171875 1035.019531 Z M 411.167969 1053.246094 L 394.636719 1053.246094 C 394.421875 1053.246094 394.25 1053.070312 394.25 1052.855469 L 394.25 1040.964844 C 394.25 1040.75 394.421875 1040.578125 394.636719 1040.578125 L 411.167969 1040.578125 C 411.382812 1040.578125 411.554688 1040.75 411.554688 1040.964844 L 411.554688 1052.855469 C 411.554688 1053.070312 411.382812 1053.246094 411.167969 1053.246094 Z M 411.550781 1058.964844 L 411.550781 1070.613281 C 411.550781 1070.867188 411.339844 1071.078125 411.085938 1071.078125 L 394.652344 1071.078125 C 394.394531 1071.078125 394.1875 1070.867188 394.1875 1070.613281 L 394.1875 1058.964844 C 394.1875 1058.710938 394.394531 1058.5 394.652344 1058.5 L 411.085938 1058.5 C 411.339844 1058.5 411.550781 1058.710938 411.550781 1058.964844 Z M 394.191406 1076.652344 C 394.195312 1076.457031 394.347656 1076.304688 394.539062 1076.304688 L 411.257812 1076.332031 C 411.449219 1076.332031 411.609375 1076.492188 411.605469 1076.679688 L 411.585938 1088.667969 C 411.582031 1088.859375 411.429688 1089.011719 411.234375 1089.015625 L 394.519531 1088.984375 C 394.328125 1088.988281 394.167969 1088.824219 394.171875 1088.636719 Z M 394.191406 1173.980469 C 394.195312 1173.800781 394.335938 1173.660156 394.515625 1173.65625 L 411.21875 1173.6875 C 411.394531 1173.6875 411.542969 1173.832031 411.539062 1174.007812 L 411.519531 1186.089844 C 411.515625 1186.265625 411.375 1186.410156 411.195312 1186.410156 L 394.492188 1186.378906 C 394.316406 1186.382812 394.167969 1186.234375 394.171875 1186.058594 Z M 394.191406 1227.691406 C 394.195312 1227.519531 394.335938 1227.378906 394.507812 1227.375 L 411.226562 1227.40625 C 411.402344 1227.402344 411.542969 1227.546875 411.539062 1227.722656 L 411.519531 1239.757812 C 411.515625 1239.933594 411.375 1240.074219 411.203125 1240.074219 L 394.484375 1240.042969 C 394.308594 1240.046875 394.167969 1239.90625 394.171875 1239.730469 Z M 394.492188 1263.300781 L 411.183594 1263.269531 C 411.359375 1263.273438 411.507812 1263.417969 411.511719 1263.597656 L 411.53125 1275.609375 C 411.535156 1275.792969 411.386719 1275.941406 411.207031 1275.9375 L 394.515625 1275.96875 C 394.335938 1275.96875 394.1875 1275.820312 394.1875 1275.640625 L 394.164062 1263.628906 C 394.160156 1263.445312 394.308594 1263.296875 394.492188 1263.300781 Z M 394.199219 1299.3125 C 394.203125 1299.144531 394.335938 1299.011719 394.5 1299.011719 L 411.246094 1299.039062 C 411.414062 1299.039062 411.550781 1299.171875 411.546875 1299.34375 L 411.523438 1311.515625 C 411.523438 1311.679688 411.386719 1311.816406 411.222656 1311.816406 L 394.480469 1311.785156 C 394.308594 1311.789062 394.175781 1311.652344 394.175781 1311.484375 Z M 394.167969 1293.601562 L 394.167969 1281.375 C 394.167969 1281.25 394.269531 1281.148438 394.394531 1281.148438 L 411.300781 1281.148438 C 411.429688 1281.148438 411.527344 1281.25 411.527344 1281.375 L 411.527344 1293.601562 C 411.527344 1293.730469 411.429688 1293.832031 411.300781 1293.832031 L 394.394531 1293.832031 C 394.269531 1293.832031 394.167969 1293.730469 394.167969 1293.601562 Z M 394.140625 1317.410156 C 394.140625 1317.222656 394.289062 1317.078125 394.476562 1317.078125 L 411.167969 1317.078125 C 411.355469 1317.078125 411.503906 1317.222656 411.503906 1317.410156 L 411.503906 1329.410156 C 411.503906 1329.597656 411.355469 1329.746094 411.167969 1329.746094 L 394.476562 1329.746094 C 394.289062 1329.746094 394.140625 1329.597656 394.140625 1329.410156 Z M 411.515625 1335.148438 L 411.515625 1347.46875 C 411.515625 1347.589844 411.421875 1347.683594 411.300781 1347.683594 L 394.371094 1347.683594 C 394.25 1347.683594 394.15625 1347.589844 394.15625 1347.46875 L 394.15625 1335.148438 C 394.15625 1335.027344 394.25 1334.933594 394.371094 1334.933594 L 411.300781 1334.933594 C 411.421875 1334.933594 411.515625 1335.027344 411.515625 1335.148438 Z M 394.09375 1371.25 C 394.09375 1371.050781 394.253906 1370.886719 394.457031 1370.886719 L 411.214844 1370.886719 C 411.414062 1370.886719 411.574219 1371.050781 411.574219 1371.25 L 411.574219 1383.167969 C 411.574219 1383.371094 411.414062 1383.53125 411.214844 1383.53125 L 394.457031 1383.53125 C 394.253906 1383.53125 394.09375 1383.371094 394.09375 1383.167969 Z M 411.570312 1431.242188 C 411.570312 1431.390625 411.457031 1431.503906 411.308594 1431.503906 L 394.390625 1431.503906 C 394.242188 1431.503906 394.128906 1431.390625 394.128906 1431.242188 L 394.128906 1407.003906 C 394.128906 1406.855469 394.242188 1406.742188 394.390625 1406.742188 L 411.308594 1406.742188 C 411.457031 1406.742188 411.570312 1406.855469 411.570312 1407.003906 Z M 411.582031 1401.28125 C 411.582031 1401.386719 411.496094 1401.476562 411.386719 1401.476562 L 394.320312 1401.476562 C 394.214844 1401.476562 394.128906 1401.386719 394.128906 1401.28125 L 394.128906 1388.988281 C 394.128906 1388.878906 394.214844 1388.792969 394.320312 1388.792969 L 411.386719 1388.792969 C 411.496094 1388.792969 411.582031 1388.878906 411.582031 1388.988281 Z M 411.578125 1365.347656 C 411.574219 1365.527344 411.429688 1365.671875 411.25 1365.675781 L 394.492188 1365.644531 C 394.308594 1365.644531 394.160156 1365.5 394.164062 1365.316406 L 394.183594 1353.210938 C 394.1875 1353.03125 394.335938 1352.882812 394.515625 1352.882812 L 411.273438 1352.910156 C 411.453125 1352.910156 411.601562 1353.058594 411.601562 1353.242188 Z M 411.5625 1257.792969 C 411.5625 1257.957031 411.429688 1258.089844 411.257812 1258.09375 L 394.5 1258.035156 C 394.335938 1258.035156 394.203125 1257.894531 394.199219 1257.730469 L 394.242188 1245.558594 C 394.242188 1245.394531 394.375 1245.261719 394.546875 1245.257812 L 411.304688 1245.316406 C 411.46875 1245.316406 411.601562 1245.457031 411.601562 1245.621094 Z M 411.5625 1257.792969 " fill-opacity="1" fill-rule="nonzero"/></g><g clip-path="url(#0cb5ef5b9d)"><path fill="#fefefe" d="M 591.871094 1439.953125 L 445.632812 1439.953125 C 442.699219 1439.953125 440.324219 1437.578125 440.324219 1434.648438 L 440.324219 1199.617188 C 440.324219 1156.371094 475.507812 1121.1875 518.75 1121.1875 C 561.996094 1121.1875 597.179688 1156.371094 597.179688 1199.617188 L 597.179688 1434.648438 C 597.179688 1437.578125 594.804688 1439.953125 591.871094 1439.953125 Z M 450.9375 1429.339844 L 586.566406 1429.339844 L 586.566406 1199.617188 C 586.566406 1162.226562 556.144531 1131.804688 518.75 1131.804688 C 481.359375 1131.804688 450.9375 1162.226562 450.9375 1199.617188 Z M 450.9375 1429.339844 " fill-opacity="1" fill-rule="nonzero"/></g><g clip-path="url(#9cf46b6ec7)"><path fill="#fefefe" d="M 591.871094 1220.59375 L 445.632812 1220.59375 C 442.699219 1220.59375 440.324219 1218.21875 440.324219 1215.285156 C 440.324219 1212.355469 442.699219 1209.980469 445.632812 1209.980469 L 591.871094 1209.980469 C 594.800781 1209.980469 597.179688 1212.355469 597.179688 1215.285156 C 597.179688 1218.21875 594.804688 1220.59375 591.871094 1220.59375 Z M 591.871094 1220.59375 " fill-opacity="1" fill-rule="nonzero"/></g><path fill="#fefefe" d="M 555.964844 1220.59375 L 482.84375 1220.59375 C 479.914062 1220.59375 477.535156 1218.21875 477.535156 1215.285156 L 477.535156 1163.058594 C 477.535156 1139.972656 496.320312 1121.191406 519.40625 1121.191406 C 542.492188 1121.191406 561.273438 1139.972656 561.273438 1163.058594 L 561.273438 1215.285156 C 561.273438 1218.21875 558.894531 1220.59375 555.964844 1220.59375 Z M 488.152344 1209.980469 L 550.65625 1209.980469 L 550.65625 1163.058594 C 550.65625 1145.824219 536.636719 1131.804688 519.40625 1131.804688 C 502.171875 1131.804688 488.152344 1145.824219 488.152344 1163.058594 Z M 488.152344 1209.980469 " fill-opacity="1" fill-rule="nonzero"/><path fill="#fefefe" d="M 513.527344 1439.953125 L 471.746094 1439.953125 C 468.816406 1439.953125 466.4375 1437.578125 466.4375 1434.648438 L 466.4375 1215.285156 C 466.4375 1212.355469 468.816406 1209.980469 471.746094 1209.980469 L 513.527344 1209.980469 C 516.460938 1209.980469 518.835938 1212.355469 518.835938 1215.285156 L 518.835938 1434.648438 C 518.835938 1437.578125 516.460938 1439.953125 513.527344 1439.953125 Z M 477.054688 1429.339844 L 508.222656 1429.339844 L 508.222656 1220.59375 L 477.054688 1220.59375 Z M 477.054688 1429.339844 " fill-opacity="1" fill-rule="nonzero"/><path fill="#fefefe" d="M 513.527344 1251.929688 L 471.746094 1251.929688 C 468.816406 1251.929688 466.4375 1249.554688 466.4375 1246.625 C 466.4375 1243.691406 468.816406 1241.316406 471.746094 1241.316406 L 513.527344 1241.316406 C 516.460938 1241.316406 518.835938 1243.691406 518.835938 1246.625 C 518.835938 1249.554688 516.460938 1251.929688 513.527344 1251.929688 Z M 513.527344 1251.929688 " fill-opacity="1" fill-rule="nonzero"/><path fill="#fefefe" d="M 513.527344 1278.042969 L 471.746094 1278.042969 C 468.816406 1278.042969 466.4375 1275.667969 466.4375 1272.738281 C 466.4375 1269.808594 468.816406 1267.429688 471.746094 1267.429688 L 513.527344 1267.429688 C 516.460938 1267.429688 518.835938 1269.808594 518.835938 1272.738281 C 518.835938 1275.667969 516.460938 1278.042969 513.527344 1278.042969 Z M 513.527344 1278.042969 " fill-opacity="1" fill-rule="nonzero"/><path fill="#fefefe" d="M 513.527344 1304.160156 L 471.746094 1304.160156 C 468.816406 1304.160156 466.4375 1301.78125 466.4375 1298.851562 C 466.4375 1295.921875 468.816406 1293.542969 471.746094 1293.542969 L 513.527344 1293.542969 C 516.460938 1293.542969 518.835938 1295.921875 518.835938 1298.851562 C 518.835938 1301.78125 516.460938 1304.160156 513.527344 1304.160156 Z M 513.527344 1304.160156 " fill-opacity="1" fill-rule="nonzero"/><path fill="#fefefe" d="M 513.527344 1330.273438 L 471.746094 1330.273438 C 468.816406 1330.273438 466.4375 1327.898438 466.4375 1324.964844 C 466.4375 1322.035156 468.816406 1319.660156 471.746094 1319.660156 L 513.527344 1319.660156 C 516.460938 1319.660156 518.835938 1322.035156 518.835938 1324.964844 C 518.835938 1327.898438 516.460938 1330.273438 513.527344 1330.273438 Z M 513.527344 1330.273438 " fill-opacity="1" fill-rule="nonzero"/><path fill="#fefefe" d="M 513.527344 1356.386719 L 471.746094 1356.386719 C 468.816406 1356.386719 466.4375 1354.011719 466.4375 1351.082031 C 466.4375 1348.148438 468.816406 1345.773438 471.746094 1345.773438 L 513.527344 1345.773438 C 516.460938 1345.773438 518.835938 1348.148438 518.835938 1351.082031 C 518.835938 1354.011719 516.460938 1356.386719 513.527344 1356.386719 Z M 513.527344 1356.386719 " fill-opacity="1" fill-rule="nonzero"/><path fill="#fefefe" d="M 513.527344 1382.503906 L 471.746094 1382.503906 C 468.816406 1382.503906 466.4375 1380.125 466.4375 1377.195312 C 466.4375 1374.265625 468.816406 1371.886719 471.746094 1371.886719 L 513.527344 1371.886719 C 516.460938 1371.886719 518.835938 1374.265625 518.835938 1377.195312 C 518.835938 1380.125 516.460938 1382.503906 513.527344 1382.503906 Z M 513.527344 1382.503906 " fill-opacity="1" fill-rule="nonzero"/><path fill="#fefefe" d="M 513.527344 1408.617188 L 471.746094 1408.617188 C 468.816406 1408.617188 466.4375 1406.242188 466.4375 1403.308594 C 466.4375 1400.378906 468.816406 1398.003906 471.746094 1398.003906 L 513.527344 1398.003906 C 516.460938 1398.003906 518.835938 1400.378906 518.835938 1403.308594 C 518.835938 1406.242188 516.460938 1408.617188 513.527344 1408.617188 Z M 513.527344 1408.617188 " fill-opacity="1" fill-rule="nonzero"/><g clip-path="url(#bb039fe817)"><path fill="#fefefe" d="M 759.003906 1439.953125 L 612.761719 1439.953125 C 609.832031 1439.953125 607.457031 1437.578125 607.457031 1434.648438 L 607.457031 1178.726562 C 607.457031 1135.480469 642.636719 1100.296875 685.882812 1100.296875 C 729.128906 1100.296875 764.3125 1135.480469 764.3125 1178.726562 L 764.3125 1434.648438 C 764.3125 1437.578125 761.933594 1439.953125 759.003906 1439.953125 Z M 618.070312 1429.339844 L 753.695312 1429.339844 L 753.695312 1178.726562 C 753.695312 1141.332031 723.277344 1110.914062 685.882812 1110.914062 C 648.492188 1110.914062 618.070312 1141.332031 618.070312 1178.726562 Z M 618.070312 1429.339844 " fill-opacity="1" fill-rule="nonzero"/></g><g clip-path="url(#3ec121f658)"><path fill="#fefefe" d="M 759.003906 1220.59375 L 612.761719 1220.59375 C 609.832031 1220.59375 607.457031 1218.21875 607.457031 1215.285156 C 607.457031 1212.355469 609.832031 1209.980469 612.761719 1209.980469 L 759.003906 1209.980469 C 761.933594 1209.980469 764.3125 1212.355469 764.3125 1215.285156 C 764.3125 1218.21875 761.933594 1220.59375 759.003906 1220.59375 Z M 759.003906 1220.59375 " fill-opacity="1" fill-rule="nonzero"/></g><g clip-path="url(#471f9c3a14)"><path fill="#fefefe" d="M 723.097656 1220.59375 L 649.976562 1220.59375 C 647.046875 1220.59375 644.667969 1218.21875 644.667969 1215.285156 L 644.667969 1142.164062 C 644.667969 1119.078125 663.453125 1100.296875 686.535156 1100.296875 C 709.621094 1100.296875 728.402344 1119.078125 728.402344 1142.164062 L 728.402344 1215.285156 C 728.402344 1218.21875 726.027344 1220.59375 723.097656 1220.59375 Z M 655.285156 1209.980469 L 717.789062 1209.980469 L 717.789062 1142.164062 C 717.789062 1124.933594 703.769531 1110.914062 686.539062 1110.914062 C 669.304688 1110.914062 655.285156 1124.933594 655.285156 1142.164062 Z M 655.285156 1209.980469 " fill-opacity="1" fill-rule="nonzero"/></g><path fill="#fefefe" d="M 680.660156 1439.953125 L 638.878906 1439.953125 C 635.949219 1439.953125 633.570312 1437.578125 633.570312 1434.648438 L 633.570312 1215.285156 C 633.570312 1212.355469 635.949219 1209.980469 638.878906 1209.980469 L 680.660156 1209.980469 C 683.59375 1209.980469 685.96875 1212.355469 685.96875 1215.285156 L 685.96875 1434.648438 C 685.96875 1437.578125 683.59375 1439.953125 680.660156 1439.953125 Z M 644.183594 1429.339844 L 675.355469 1429.339844 L 675.355469 1220.59375 L 644.183594 1220.59375 Z M 644.183594 1429.339844 " fill-opacity="1" fill-rule="nonzero"/><path fill="#fefefe" d="M 680.660156 1251.929688 L 638.878906 1251.929688 C 635.949219 1251.929688 633.570312 1249.554688 633.570312 1246.625 C 633.570312 1243.691406 635.949219 1241.316406 638.878906 1241.316406 L 680.660156 1241.316406 C 683.59375 1241.316406 685.96875 1243.691406 685.96875 1246.625 C 685.96875 1249.554688 683.59375 1251.929688 680.660156 1251.929688 Z M 680.660156 1251.929688 " fill-opacity="1" fill-rule="nonzero"/><path fill="#fefefe" d="M 680.660156 1278.042969 L 638.878906 1278.042969 C 635.949219 1278.042969 633.570312 1275.667969 633.570312 1272.738281 C 633.570312 1269.808594 635.949219 1267.429688 638.878906 1267.429688 L 680.660156 1267.429688 C 683.59375 1267.429688 685.96875 1269.808594 685.96875 1272.738281 C 685.96875 1275.667969 683.59375 1278.042969 680.660156 1278.042969 Z M 680.660156 1278.042969 " fill-opacity="1" fill-rule="nonzero"/><path fill="#fefefe" d="M 680.660156 1304.160156 L 638.878906 1304.160156 C 635.949219 1304.160156 633.570312 1301.78125 633.570312 1298.851562 C 633.570312 1295.921875 635.949219 1293.542969 638.878906 1293.542969 L 680.660156 1293.542969 C 683.59375 1293.542969 685.96875 1295.921875 685.96875 1298.851562 C 685.96875 1301.78125 683.59375 1304.160156 680.660156 1304.160156 Z M 680.660156 1304.160156 " fill-opacity="1" fill-rule="nonzero"/><path fill="#fefefe" d="M 680.660156 1330.273438 L 638.878906 1330.273438 C 635.949219 1330.273438 633.570312 1327.898438 633.570312 1324.964844 C 633.570312 1322.035156 635.949219 1319.660156 638.878906 1319.660156 L 680.660156 1319.660156 C 683.59375 1319.660156 685.96875 1322.035156 685.96875 1324.964844 C 685.96875 1327.898438 683.59375 1330.273438 680.660156 1330.273438 Z M 680.660156 1330.273438 " fill-opacity="1" fill-rule="nonzero"/><path fill="#fefefe" d="M 680.660156 1356.386719 L 638.878906 1356.386719 C 635.949219 1356.386719 633.570312 1354.011719 633.570312 1351.082031 C 633.570312 1348.148438 635.949219 1345.773438 638.878906 1345.773438 L 680.660156 1345.773438 C 683.59375 1345.773438 685.96875 1348.148438 685.96875 1351.082031 C 685.96875 1354.011719 683.59375 1356.386719 680.660156 1356.386719 Z M 680.660156 1356.386719 " fill-opacity="1" fill-rule="nonzero"/><path fill="#fefefe" d="M 680.660156 1382.503906 L 638.878906 1382.503906 C 635.949219 1382.503906 633.570312 1380.125 633.570312 1377.195312 C 633.570312 1374.265625 635.949219 1371.886719 638.878906 1371.886719 L 680.660156 1371.886719 C 683.59375 1371.886719 685.96875 1374.265625 685.96875 1377.195312 C 685.96875 1380.125 683.59375 1382.503906 680.660156 1382.503906 Z M 680.660156 1382.503906 " fill-opacity="1" fill-rule="nonzero"/><path fill="#fefefe" d="M 680.660156 1408.617188 L 638.878906 1408.617188 C 635.949219 1408.617188 633.570312 1406.242188 633.570312 1403.308594 C 633.570312 1400.378906 635.949219 1398.003906 638.878906 1398.003906 L 680.660156 1398.003906 C 683.59375 1398.003906 685.96875 1400.378906 685.96875 1403.308594 C 685.96875 1406.242188 683.59375 1408.617188 680.660156 1408.617188 Z M 680.660156 1408.617188 " fill-opacity="1" fill-rule="nonzero"/></svg>